solid OpenSCAD_Model
  facet normal 0.167731 -0.258819 0.951251
    outer loop
      vertex 2.78658 4.4414 2.29395
      vertex 7 0 0.342582
      vertex 4.43576 4.4414 2.00316
    endloop
  endfacet
  facet normal 0.167731 -0.258819 0.951251
    outer loop
      vertex 7 0 0.342582
      vertex 2.78658 4.4414 2.29395
      vertex 5.83845 -2.01187 0
    endloop
  endfacet
  facet normal 0.167731 -0.258819 0.951251
    outer loop
      vertex 2.78658 4.4414 2.29395
      vertex -0.411414 -6.06218 0
      vertex 5.83845 -2.01187 0
    endloop
  endfacet
  facet normal 0.167731 -0.258819 0.951251
    outer loop
      vertex -5.51049 -2.35691 1.90724
      vertex -0.411414 -6.06218 0
      vertex 2.78658 4.4414 2.29395
    endloop
  endfacet
  facet normal 0.167731 -0.258819 0.951251
    outer loop
      vertex -0.411414 -6.06218 0
      vertex -5.51049 -2.35691 1.90724
      vertex -3.5 -6.06218 0.544601
    endloop
  endfacet
  facet normal 0.167732 -0.258819 0.951251
    outer loop
      vertex -7 0 2.81116
      vertex -5.51049 -2.35691 1.90724
      vertex -6.95978 0.0696582 2.82302
    endloop
  endfacet
  facet normal 0.167731 -0.258819 0.951251
    outer loop
      vertex -5.51049 -2.35691 1.90724
      vertex -7 0 2.81116
      vertex -3.5 -6.06218 0.544601
    endloop
  endfacet
  facet normal -0.167731 0.258819 -0.951251
    outer loop
      vertex -0.89142 5.21786 0
      vertex -4.01589 3.65037 0.124442
      vertex -2.10283 5.21786 0.213604
    endloop
  endfacet
  facet normal -0.167731 0.258819 -0.951251
    outer loop
      vertex -4.01589 3.65037 0.124442
      vertex -0.89142 5.21786 0
      vertex -5.83845 2.01187 0
    endloop
  endfacet
  facet normal -0.167731 0.258819 -0.951251
    outer loop
      vertex -4.01589 3.65037 0.124442
      vertex -3.98747 5.21786 0.545917
      vertex -3.21319 5.21786 0.40939
    endloop
  endfacet
  facet normal -0.167731 0.258819 -0.951251
    outer loop
      vertex -3.98747 5.21786 0.545917
      vertex -4.01589 3.65037 0.124442
      vertex -5.83845 2.01187 0
    endloop
  endfacet
  facet normal 0.0449435 0.965926 0.254887
    outer loop
      vertex 4.12215 4.98458 0
      vertex 2.78658 4.4414 2.29395
      vertex 4.43576 4.4414 2.00316
    endloop
  endfacet
  facet normal 0.0449435 0.965926 0.254887
    outer loop
      vertex 2.78658 4.4414 2.29395
      vertex 4.12215 4.98458 0
      vertex 1.92252 4.57862 1.92631
    endloop
  endfacet
  facet normal 0.0449435 0.965926 0.254887
    outer loop
      vertex 1.92252 4.57862 1.92631
      vertex 4.12215 4.98458 0
      vertex -0.89142 5.21786 0
    endloop
  endfacet
  facet normal 0.0449435 0.965926 0.254887
    outer loop
      vertex 1.92252 4.57862 1.92631
      vertex -0.89142 5.21786 0
      vertex -2.10283 5.21786 0.213604
    endloop
  endfacet
  facet normal 0.0449435 0.965926 0.254887
    outer loop
      vertex -3.98747 5.21786 0.545917
      vertex -4.15395 4.92949 1.66807
      vertex -3.21319 5.21786 0.40939
    endloop
  endfacet
  facet normal 0.167731 -0.258819 0.951251
    outer loop
      vertex 0.802025 0.489162 11.0298
      vertex -5.78062 2.11203 12.632
      vertex -3.82548 -3.30244 10.8141
    endloop
  endfacet
  facet normal 0.167731 -0.258819 0.951251
    outer loop
      vertex -5.78062 2.11203 12.632
      vertex 0.802025 0.489162 11.0298
      vertex 2.78267 2.11203 11.1221
    endloop
  endfacet
  facet normal 0.16773 -0.258841 0.951246
    outer loop
      vertex 5.78062 2.11203 10.5935
      vertex 4.60023 2.11203 10.8016
      vertex 4.61252 2.09146 10.7938
    endloop
  endfacet
  facet normal 0.167731 -0.258818 0.951251
    outer loop
      vertex 4.0073 0.909598 10.579
      vertex 5.78062 2.11203 10.5935
      vertex 4.61252 2.09146 10.7938
    endloop
  endfacet
  facet normal 0.167731 -0.258819 0.951251
    outer loop
      vertex 5.78062 2.11203 10.5935
      vertex 4.0073 0.909598 10.579
      vertex 7 0 9.8038
    endloop
  endfacet
  facet normal 0.167731 -0.258819 0.951251
    outer loop
      vertex 4.0073 0.909598 10.579
      vertex 3.5 -6.06218 8.77153
      vertex 7 0 9.8038
    endloop
  endfacet
  facet normal 0.167731 -0.258819 0.951251
    outer loop
      vertex 1.31407 -4.34964 9.62292
      vertex 3.5 -6.06218 8.77153
      vertex 4.0073 0.909598 10.579
    endloop
  endfacet
  facet normal 0.167731 -0.258819 0.951251
    outer loop
      vertex 1.31407 -4.34964 9.62292
      vertex -3.5 -6.06218 10.0058
      vertex 3.5 -6.06218 8.77153
    endloop
  endfacet
  facet normal 0.167731 -0.258819 0.951251
    outer loop
      vertex -3.82548 -3.30244 10.8141
      vertex -3.5 -6.06218 10.0058
      vertex 1.31407 -4.34964 9.62292
    endloop
  endfacet
  facet normal 0.167731 -0.258819 0.951251
    outer loop
      vertex -7 0 12.2724
      vertex -3.82548 -3.30244 10.8141
      vertex -5.78062 2.11203 12.632
    endloop
  endfacet
  facet normal 0.167732 -0.258819 0.951251
    outer loop
      vertex -3.82548 -3.30244 10.8141
      vertex -7 0 12.2724
      vertex -3.5 -6.06218 10.0058
    endloop
  endfacet
  facet normal 0.0449435 0.965926 0.254887
    outer loop
      vertex 1.03853 2.38901 10.38
      vertex -5.78062 2.11203 12.632
      vertex 2.78267 2.11203 11.1221
    endloop
  endfacet
  facet normal 0.0449435 0.965926 0.254887
    outer loop
      vertex -2.10674 2.88849 9.04173
      vertex -5.78062 2.11203 12.632
      vertex 1.03853 2.38901 10.38
    endloop
  endfacet
  facet normal 0.0449435 0.965926 0.254887
    outer loop
      vertex -5.78062 2.11203 12.632
      vertex -2.10674 2.88849 9.04173
      vertex -5.33233 2.88849 9.61049
    endloop
  endfacet
  facet normal 0.0449435 0.965926 0.254887
    outer loop
      vertex 5.78062 2.11203 10.5935
      vertex 4.64019 2.88849 7.85207
      vertex 4.60023 2.11203 10.8016
    endloop
  endfacet
  facet normal 0.0449435 0.965926 0.254887
    outer loop
      vertex 4.64019 2.88849 7.85207
      vertex 5.78062 2.11203 10.5935
      vertex 5.33233 2.88849 7.73003
    endloop
  endfacet
  facet normal -0.167731 0.258819 -0.951251
    outer loop
      vertex 3.24575 -4.74769 6.02027
      vertex 7 0 6.65006
      vertex 3.5 -6.06218 5.61779
    endloop
  endfacet
  facet normal -0.167731 0.258819 -0.951251
    outer loop
      vertex 7 0 6.65006
      vertex 3.24575 -4.74769 6.02027
      vertex 5.99477 0.620501 6.99614
    endloop
  endfacet
  facet normal -0.167731 0.258819 -0.951251
    outer loop
      vertex 3.5 -6.06218 5.61779
      vertex 2.08766 -5.69658 5.9663
      vertex 3.24575 -4.74769 6.02027
    endloop
  endfacet
  facet normal -0.167731 0.258819 -0.951251
    outer loop
      vertex -3.5 -6.06218 6.85208
      vertex 2.08766 -5.69658 5.9663
      vertex 3.5 -6.06218 5.61779
    endloop
  endfacet
  facet normal -0.167731 0.258819 -0.951251
    outer loop
      vertex 2.08766 -5.69658 5.9663
      vertex -3.5 -6.06218 6.85208
      vertex -4.48417 -4.35755 7.48942
    endloop
  endfacet
  facet normal -0.167731 0.258819 -0.951251
    outer loop
      vertex 5.99477 0.620501 6.99614
      vertex 5.33233 2.88849 7.73003
      vertex 7 0 6.65006
    endloop
  endfacet
  facet normal -0.167731 0.258819 -0.951251
    outer loop
      vertex 5.33233 2.88849 7.73003
      vertex 5.99477 0.620501 6.99614
      vertex 4.64019 2.88849 7.85207
    endloop
  endfacet
  facet normal -0.167731 0.258819 -0.951251
    outer loop
      vertex -5.85997 -0.186765 8.86681
      vertex -5.33233 2.88849 9.61049
      vertex -2.10674 2.88849 9.04173
    endloop
  endfacet
  facet normal -0.167731 0.258819 -0.951251
    outer loop
      vertex -7 0 9.11864
      vertex -5.85997 -0.186765 8.86681
      vertex -6.56069 -0.760911 8.83415
    endloop
  endfacet
  facet normal -0.167731 0.258819 -0.951251
    outer loop
      vertex -5.85997 -0.186765 8.86681
      vertex -7 0 9.11864
      vertex -5.33233 2.88849 9.61049
    endloop
  endfacet
  facet normal 0.167731 -0.258819 0.951251
    outer loop
      vertex -5.46985 -0.217342 21.4047
      vertex 3.5 -6.06218 18.2328
      vertex 6.87452 -0.217342 19.228
    endloop
  endfacet
  facet normal 0.167731 -0.258819 0.951251
    outer loop
      vertex 3.5 -6.06218 18.2328
      vertex -4.32298 -4.63673 20
      vertex -3.5 -6.06218 19.467
    endloop
  endfacet
  facet normal 0.167731 -0.258819 0.951251
    outer loop
      vertex 3.5 -6.06218 18.2328
      vertex -5.46985 -0.217342 21.4047
      vertex -4.32298 -4.63673 20
    endloop
  endfacet
  facet normal -0.167732 0.25882 -0.951251
    outer loop
      vertex 3.5 -6.06218 15.079
      vertex 6.6772 0.559115 16.3203
      vertex 7 0 16.1113
    endloop
  endfacet
  facet normal -0.167731 0.258819 -0.951251
    outer loop
      vertex -3.5 -6.06218 16.3133
      vertex 6.6772 0.559115 16.3203
      vertex 3.5 -6.06218 15.079
    endloop
  endfacet
  facet normal -0.167731 0.258819 -0.951251
    outer loop
      vertex -3.5 -6.06218 16.3133
      vertex -6.67719 0.559115 18.6751
      vertex 6.6772 0.559115 16.3203
    endloop
  endfacet
  facet normal -0.167733 0.258818 -0.951251
    outer loop
      vertex -6.67719 0.559115 18.6751
      vertex -3.5 -6.06218 16.3133
      vertex -7 0 18.5799
    endloop
  endfacet
  facet normal 0.0449439 0.965926 0.254887
    outer loop
      vertex -6.67719 0.559115 18.6751
      vertex -6.27671 0 20.7233
      vertex -5.46985 -0.217342 21.4047
    endloop
  endfacet
  facet normal 0.0449435 0.965926 0.254887
    outer loop
      vertex 6.6772 0.559115 16.3203
      vertex -5.46985 -0.217342 21.4047
      vertex 6.87452 -0.217342 19.228
    endloop
  endfacet
  facet normal 0.0449435 0.965926 0.254887
    outer loop
      vertex -6.27671 0 20.7233
      vertex -6.67719 0.559115 18.6751
      vertex -6.87377 0.218641 20
    endloop
  endfacet
  facet normal 0.0449445 0.965926 0.254887
    outer loop
      vertex 6.6772 0.559115 16.3203
      vertex 6.87452 -0.217342 19.228
      vertex 7 0 18.3822
    endloop
  endfacet
  facet normal 0.0449434 0.965926 0.254887
    outer loop
      vertex -5.46985 -0.217342 21.4047
      vertex 6.6772 0.559115 16.3203
      vertex -6.67719 0.559115 18.6751
    endloop
  endfacet
  facet normal 0.866025 0.5 6.03333e-08
    outer loop
      vertex 7 0 0.342582
      vertex 4.12215 4.98458 0
      vertex 4.43576 4.4414 2.00316
    endloop
  endfacet
  facet normal 0.866025 0.5 0
    outer loop
      vertex 4.12215 4.98458 0
      vertex 7 0 0.342582
      vertex 7 0 0
    endloop
  endfacet
  facet normal 0.866025 0.5 1.26351e-07
    outer loop
      vertex 7 0 9.8038
      vertex 5.33233 2.88849 7.73003
      vertex 5.78062 2.11203 10.5935
    endloop
  endfacet
  facet normal 0.866025 0.5 0
    outer loop
      vertex 5.33233 2.88849 7.73003
      vertex 7 0 9.8038
      vertex 7 0 6.65006
    endloop
  endfacet
  facet normal 0.866025 0.5 0
    outer loop
      vertex 4.05814 5.09546 3.9464
      vertex 3.5 6.06218 3.13637
      vertex 3.5 6.06218 4.18731
    endloop
  endfacet
  facet normal 0.866025 0.5 4.74733e-08
    outer loop
      vertex 3.5 6.06218 3.13637
      vertex 4.05814 5.09546 3.9464
      vertex 3.6578 5.78887 2.3947
    endloop
  endfacet
  facet normal 0.866026 0.499999 4.51229e-07
    outer loop
      vertex 3.6578 5.78887 2.3947
      vertex 3.77915 5.57867 2.21472
      vertex 3.71108 5.69658 2.14427
    endloop
  endfacet
  facet normal 0.866026 0.5 -2.05902e-07
    outer loop
      vertex 3.6578 5.78887 2.3947
      vertex 4.05814 5.09546 3.9464
      vertex 3.77915 5.57867 2.21472
    endloop
  endfacet
  facet normal 0.866025 0.5 8.82956e-09
    outer loop
      vertex 3.77915 5.57867 2.21472
      vertex 4.05814 5.09546 3.9464
      vertex 5.0421 3.39118 3.52167
    endloop
  endfacet
  facet normal 0.866026 0.5 -0
    outer loop
      vertex 7 0 16.1113
      vertex 6.6772 0.559115 16.3203
      vertex 7 0 18.3822
    endloop
  endfacet
  facet normal -0.866025 0.5 -1.92552e-07
    outer loop
      vertex -7 0 18.5799
      vertex -6.87377 0.218641 20
      vertex -6.67719 0.559115 18.6751
    endloop
  endfacet
  facet normal -0.866026 0.499999 0
    outer loop
      vertex -6.87377 0.218641 20
      vertex -7 0 18.5799
      vertex -7 0 20
    endloop
  endfacet
  facet normal -0.866025 0.5 6.44601e-08
    outer loop
      vertex -7 0 0
      vertex -6.95978 0.0696582 2.82302
      vertex -5.83845 2.01187 0
    endloop
  endfacet
  facet normal -0.866024 0.500002 0
    outer loop
      vertex -6.95978 0.0696582 2.82302
      vertex -7 0 0
      vertex -7 0 2.81116
    endloop
  endfacet
  facet normal -0.866025 0.5 -1.00868e-07
    outer loop
      vertex -5.83845 2.01187 0
      vertex -4.15395 4.92949 1.66807
      vertex -3.98747 5.21786 0.545917
    endloop
  endfacet
  facet normal -0.866025 0.5 3.49517e-08
    outer loop
      vertex -4.15395 4.92949 1.66807
      vertex -5.83845 2.01187 0
      vertex -6.95978 0.0696582 2.82302
    endloop
  endfacet
  facet normal -0.866025 0.5 -3.83439e-07
    outer loop
      vertex -4.15395 4.92949 1.66807
      vertex -6.95978 0.0696582 2.82302
      vertex -7 0 3.32346
    endloop
  endfacet
  facet normal -0.866025 0.5 4.03074e-08
    outer loop
      vertex -4.15395 4.92949 1.66807
      vertex -7 0 3.32346
      vertex -5.51695 2.56872 7.92437
    endloop
  endfacet
  facet normal -0.866025 0.5 0
    outer loop
      vertex -5.51695 2.56872 7.92437
      vertex -7 0 3.32346
      vertex -7 0 8.37953
    endloop
  endfacet
  facet normal -0.866025 0.5 0
    outer loop
      vertex -4.15395 4.92949 1.66807
      vertex -3.5 6.06218 7.30537
      vertex -3.5 6.06218 1.75178
    endloop
  endfacet
  facet normal -0.866025 0.5 3.62102e-08
    outer loop
      vertex -3.5 6.06218 7.30537
      vertex -4.15395 4.92949 1.66807
      vertex -5.51695 2.56872 7.92437
    endloop
  endfacet
  facet normal -0.866025 0.5 0
    outer loop
      vertex -7 0 12.2724
      vertex -5.33233 2.88849 9.61049
      vertex -7 0 9.11864
    endloop
  endfacet
  facet normal -0.866025 0.5 -4.59006e-09
    outer loop
      vertex -5.33233 2.88849 9.61049
      vertex -7 0 12.2724
      vertex -5.78062 2.11203 12.632
    endloop
  endfacet
  facet normal 0 1 0
    outer loop
      vertex 3.5 6.06218 4.18731
      vertex 1.49578 6.06218 9.12368
      vertex 2.66697 6.06218 9.54996
    endloop
  endfacet
  facet normal 0 1 0
    outer loop
      vertex 1.49578 6.06218 9.12368
      vertex 3.5 6.06218 4.18731
      vertex -3.5 6.06218 7.30537
    endloop
  endfacet
  facet normal 0 1 0
    outer loop
      vertex 2.65006 6.06218 2.82701
      vertex 3.5 6.06218 4.18731
      vertex 3.5 6.06218 3.13637
    endloop
  endfacet
  facet normal 0 1 0
    outer loop
      vertex 3.5 6.06218 4.18731
      vertex 2.65006 6.06218 2.82701
      vertex -3.5 6.06218 7.30537
    endloop
  endfacet
  facet normal 0 1 0
    outer loop
      vertex 2.65006 6.06218 2.82701
      vertex -3.5 6.06218 1.75178
      vertex -3.5 6.06218 7.30537
    endloop
  endfacet
  facet normal -0 1 0
    outer loop
      vertex -3.5 6.06218 1.75178
      vertex 2.65006 6.06218 2.82701
      vertex -2.92333 6.06218 0.798468
    endloop
  endfacet
  facet normal -0.866025 -0.5 0
    outer loop
      vertex -7 0 18.5799
      vertex -4.32298 -4.63673 20
      vertex -7 0 20
    endloop
  endfacet
  facet normal -0.866025 -0.5 3.1551e-08
    outer loop
      vertex -3.5 -6.06218 16.3133
      vertex -4.32298 -4.63673 20
      vertex -7 0 18.5799
    endloop
  endfacet
  facet normal -0.866025 -0.5 0
    outer loop
      vertex -4.32298 -4.63673 20
      vertex -3.5 -6.06218 16.3133
      vertex -3.5 -6.06218 19.467
    endloop
  endfacet
  facet normal -0.866025 -0.5 -0
    outer loop
      vertex -3.5 -6.06218 0.544601
      vertex -7 0 0
      vertex -3.5 -6.06218 0
    endloop
  endfacet
  facet normal -0.866025 -0.5 0
    outer loop
      vertex -7 0 0
      vertex -3.5 -6.06218 0.544601
      vertex -7 0 2.81116
    endloop
  endfacet
  facet normal -0.866025 -0.5 0
    outer loop
      vertex -4.48417 -4.35755 7.48942
      vertex -7 0 8.37953
      vertex -7 0 3.32346
    endloop
  endfacet
  facet normal -0.866025 -0.5 5.20997e-08
    outer loop
      vertex -4.48417 -4.35755 7.48942
      vertex -7 0 3.32346
      vertex -5.0421 -3.39118 2.47833
    endloop
  endfacet
  facet normal -0.866025 -0.5 0
    outer loop
      vertex -6.56069 -0.760911 8.83415
      vertex -7 0 12.2724
      vertex -7 0 9.11864
    endloop
  endfacet
  facet normal -0.866025 -0.5 2.03027e-07
    outer loop
      vertex -7 0 8.37953
      vertex -4.48417 -4.35755 7.48942
      vertex -6.56069 -0.760911 8.83415
    endloop
  endfacet
  facet normal -0.866025 -0.5 1.53339e-08
    outer loop
      vertex -3.5 -6.06218 10.0058
      vertex -6.56069 -0.760911 8.83415
      vertex -4.48417 -4.35755 7.48942
    endloop
  endfacet
  facet normal -0.866025 -0.5 -0
    outer loop
      vertex -3.5 -6.06218 10.0058
      vertex -4.48417 -4.35755 7.48942
      vertex -3.5 -6.06218 6.85208
    endloop
  endfacet
  facet normal -0.866025 -0.5 -3.96845e-08
    outer loop
      vertex -6.56069 -0.760911 8.83415
      vertex -3.5 -6.06218 10.0058
      vertex -7 0 12.2724
    endloop
  endfacet
  facet normal -0.866025 -0.5 1.38364e-08
    outer loop
      vertex -3.77915 -5.57867 3.78528
      vertex -4.48417 -4.35755 7.48942
      vertex -5.0421 -3.39118 2.47833
    endloop
  endfacet
  facet normal -0.866026 -0.499999 -4.25868e-07
    outer loop
      vertex -4.48417 -4.35755 7.48942
      vertex -3.77915 -5.57867 3.78528
      vertex -3.71108 -5.69658 3.85573
    endloop
  endfacet
  facet normal 0.866025 -0.5 0
    outer loop
      vertex 7 0 0.342582
      vertex 5.83845 -2.01187 0
      vertex 7 0 0
    endloop
  endfacet
  facet normal 0.866025 -0.5 0
    outer loop
      vertex 3.5 -6.06218 8.77153
      vertex 7 0 6.65006
      vertex 7 0 9.8038
    endloop
  endfacet
  facet normal 0.866025 -0.5 0
    outer loop
      vertex 7 0 6.65006
      vertex 3.5 -6.06218 8.77153
      vertex 3.5 -6.06218 5.61779
    endloop
  endfacet
  facet normal 0.866025 -0.5 -4.7367e-08
    outer loop
      vertex 3.5 -6.06218 18.2328
      vertex 7 0 18.3822
      vertex 6.87452 -0.217342 19.228
    endloop
  endfacet
  facet normal 0.866025 -0.5 0
    outer loop
      vertex 7 0 18.3822
      vertex 3.5 -6.06218 18.2328
      vertex 7 0 16.1113
    endloop
  endfacet
  facet normal 0.866025 -0.5 0
    outer loop
      vertex 7 0 16.1113
      vertex 3.5 -6.06218 18.2328
      vertex 3.5 -6.06218 15.079
    endloop
  endfacet
  facet normal 0 0 -1
    outer loop
      vertex 5.83845 -2.01187 0
      vertex 4.12215 4.98458 0
      vertex 7 0 0
    endloop
  endfacet
  facet normal 0 0 -1
    outer loop
      vertex -0.89142 5.21786 0
      vertex 5.83845 -2.01187 0
      vertex -0.411414 -6.06218 0
    endloop
  endfacet
  facet normal 0 0 -1
    outer loop
      vertex 5.83845 -2.01187 0
      vertex -0.89142 5.21786 0
      vertex 4.12215 4.98458 0
    endloop
  endfacet
  facet normal 0 0 -1
    outer loop
      vertex -5.83845 2.01187 0
      vertex -0.411414 -6.06218 0
      vertex -3.5 -6.06218 0
    endloop
  endfacet
  facet normal 0 0 -1
    outer loop
      vertex -0.411414 -6.06218 0
      vertex -5.83845 2.01187 0
      vertex -0.89142 5.21786 0
    endloop
  endfacet
  facet normal 0 -0 -1
    outer loop
      vertex -5.83845 2.01187 0
      vertex -3.5 -6.06218 0
      vertex -7 0 0
    endloop
  endfacet
  facet normal -0 0 -1
    outer loop
      vertex -2.18026 5.69658 0
      vertex -3.35365 4.59396 0
      vertex -2.63271 5.75291 0
    endloop
  endfacet
  facet normal 0 -1 0
    outer loop
      vertex -3.5 -6.06218 0.544601
      vertex -3.5 -6.06218 0
      vertex -0.411414 -6.06218 0
    endloop
  endfacet
  facet normal 0 -1 0
    outer loop
      vertex -3.5 -6.06218 6.85208
      vertex 3.5 -6.06218 8.77153
      vertex -3.5 -6.06218 10.0058
    endloop
  endfacet
  facet normal 0 -1 -0
    outer loop
      vertex 3.5 -6.06218 8.77153
      vertex -3.5 -6.06218 6.85208
      vertex 3.5 -6.06218 5.61779
    endloop
  endfacet
  facet normal 0 -1 0
    outer loop
      vertex -3.5 -6.06218 16.3133
      vertex 3.5 -6.06218 18.2328
      vertex -3.5 -6.06218 19.467
    endloop
  endfacet
  facet normal 0 -1 -0
    outer loop
      vertex 3.5 -6.06218 18.2328
      vertex -3.5 -6.06218 16.3133
      vertex 3.5 -6.06218 15.079
    endloop
  endfacet
  facet normal -0.654653 -0.377964 0.654654
    outer loop
      vertex -6.27671 0 20.7233
      vertex -4.32298 -4.63673 20
      vertex -5.46985 -0.217342 21.4047
    endloop
  endfacet
  facet normal -0.654654 -0.377965 0.654653
    outer loop
      vertex -4.32298 -4.63673 20
      vertex -6.27671 0 20.7233
      vertex -7 0 20
    endloop
  endfacet
  facet normal -0.654654 0.377964 0.654654
    outer loop
      vertex -6.87377 0.218641 20
      vertex -7 0 20
      vertex -6.27671 0 20.7233
    endloop
  endfacet
  facet normal 0.872287 0.469846 0.135501
    outer loop
      vertex 2.66697 6.06218 9.54996
      vertex 4.05814 5.09546 3.9464
      vertex 3.5 6.06218 4.18731
    endloop
  endfacet
  facet normal 0.872287 0.469846 0.135501
    outer loop
      vertex 4.05814 5.09546 3.9464
      vertex 2.66697 6.06218 9.54996
      vertex 4.32809 2.39414 11.5753
    endloop
  endfacet
  facet normal 0.321394 -0.34202 -0.883022
    outer loop
      vertex 2.78658 4.4414 2.29395
      vertex 5.0421 3.39118 3.52167
      vertex 6.57785 0 5.39414
    endloop
  endfacet
  facet normal 0.321394 -0.34202 -0.883022
    outer loop
      vertex 5.0421 3.39118 3.52167
      vertex 2.78658 4.4414 2.29395
      vertex 3.77915 5.57867 2.21472
    endloop
  endfacet
  facet normal 0.321394 -0.34202 -0.883022
    outer loop
      vertex -5.0421 -3.39118 2.47833
      vertex 6.57785 0 5.39414
      vertex -3.77915 -5.57867 3.78528
    endloop
  endfacet
  facet normal 0.321394 -0.34202 -0.883022
    outer loop
      vertex 6.57785 0 5.39414
      vertex -5.0421 -3.39118 2.47833
      vertex 2.78658 4.4414 2.29395
    endloop
  endfacet
  facet normal 0.321394 -0.34202 -0.883022
    outer loop
      vertex 2.78658 4.4414 2.29395
      vertex -5.0421 -3.39118 2.47833
      vertex -5.51049 -2.35691 1.90724
    endloop
  endfacet
  facet normal 0.321394 -0.34202 -0.883022
    outer loop
      vertex 3.77915 5.57867 2.21472
      vertex 2.78658 4.4414 2.29395
      vertex 1.92252 4.57862 1.92631
    endloop
  endfacet
  facet normal -0.321394 0.34202 0.883022
    outer loop
      vertex 0.802025 0.489162 11.0298
      vertex -3.82548 -3.30244 10.8141
      vertex 0.330027 -3.30244 12.3266
    endloop
  endfacet
  facet normal -0.321394 0.34202 0.883022
    outer loop
      vertex 1.49578 6.06218 9.12368
      vertex -2.10674 2.88849 9.04173
      vertex 1.03853 2.38901 10.38
    endloop
  endfacet
  facet normal -0.321394 0.34202 0.883022
    outer loop
      vertex -3.5 6.06218 7.30537
      vertex -2.10674 2.88849 9.04173
      vertex 1.49578 6.06218 9.12368
    endloop
  endfacet
  facet normal -0.321394 0.34202 0.883022
    outer loop
      vertex -5.51695 2.56872 7.92437
      vertex -2.10674 2.88849 9.04173
      vertex -3.5 6.06218 7.30537
    endloop
  endfacet
  facet normal -0.321394 0.34202 0.883022
    outer loop
      vertex -2.10674 2.88849 9.04173
      vertex -5.51695 2.56872 7.92437
      vertex -5.85997 -0.186765 8.86681
    endloop
  endfacet
  facet normal 0.872287 0.469846 0.135501
    outer loop
      vertex 4.05814 5.09546 3.9464
      vertex 4.64019 2.88849 7.85207
      vertex 5.0421 3.39118 3.52167
    endloop
  endfacet
  facet normal 0.872287 0.469846 0.135501
    outer loop
      vertex 4.32809 2.39414 11.5753
      vertex 4.64019 2.88849 7.85207
      vertex 4.05814 5.09546 3.9464
    endloop
  endfacet
  facet normal 0.872287 0.469846 0.135501
    outer loop
      vertex 4.32809 2.39414 11.5753
      vertex 4.60023 2.11203 10.8016
      vertex 4.64019 2.88849 7.85207
    endloop
  endfacet
  facet normal 0.872279 0.469864 0.135492
    outer loop
      vertex 4.60023 2.11203 10.8016
      vertex 4.32809 2.39414 11.5753
      vertex 4.61252 2.09146 10.7938
    endloop
  endfacet
  facet normal 0.872287 0.469846 0.135501
    outer loop
      vertex 5.99477 0.620501 6.99614
      vertex 5.0421 3.39118 3.52167
      vertex 4.64019 2.88849 7.85207
    endloop
  endfacet
  facet normal 0.872287 0.469846 0.135501
    outer loop
      vertex 5.0421 3.39118 3.52167
      vertex 5.99477 0.620501 6.99614
      vertex 6.57785 0 5.39414
    endloop
  endfacet
  facet normal 0.116978 0.939693 -0.321394
    outer loop
      vertex 3.6578 5.78887 2.3947
      vertex 2.65006 6.06218 2.82701
      vertex 3.5 6.06218 3.13637
    endloop
  endfacet
  facet normal -0.321394 0.34202 0.883022
    outer loop
      vertex -7 0 8.37953
      vertex -5.85997 -0.186765 8.86681
      vertex -5.51695 2.56872 7.92437
    endloop
  endfacet
  facet normal -0.321394 0.34202 0.883022
    outer loop
      vertex -5.85997 -0.186765 8.86681
      vertex -7 0 8.37953
      vertex -6.56069 -0.760911 8.83415
    endloop
  endfacet
  facet normal 0.321394 -0.34202 -0.883022
    outer loop
      vertex 1.92252 4.57862 1.92631
      vertex 3.71108 5.69658 2.14427
      vertex 3.77915 5.57867 2.21472
    endloop
  endfacet
  facet normal 0.321394 -0.34202 -0.883022
    outer loop
      vertex -2.18026 5.69658 0
      vertex 1.92252 4.57862 1.92631
      vertex -2.10283 5.21786 0.213604
    endloop
  endfacet
  facet normal 0.321394 -0.34202 -0.883022
    outer loop
      vertex 1.92252 4.57862 1.92631
      vertex -2.18026 5.69658 0
      vertex 3.71108 5.69658 2.14427
    endloop
  endfacet
  facet normal 0.321394 -0.34202 -0.883022
    outer loop
      vertex -2.10283 5.21786 0.213604
      vertex -3.35365 4.59396 0
      vertex -2.18026 5.69658 0
    endloop
  endfacet
  facet normal 0.321394 -0.34202 -0.883022
    outer loop
      vertex -3.35365 4.59396 0
      vertex -2.10283 5.21786 0.213604
      vertex -4.01589 3.65037 0.124442
    endloop
  endfacet
  facet normal -0.116978 -0.939693 0.321394
    outer loop
      vertex 0.330027 -3.30244 12.3266
      vertex -3.82548 -3.30244 10.8141
      vertex 1.31407 -4.34964 9.62292
    endloop
  endfacet
  facet normal -0.116978 -0.939693 0.321394
    outer loop
      vertex 2.08766 -5.69658 5.9663
      vertex -4.48417 -4.35755 7.48942
      vertex -3.71108 -5.69658 3.85573
    endloop
  endfacet
  facet normal 0.321394 -0.34202 -0.883022
    outer loop
      vertex -3.77915 -5.57867 3.78528
      vertex 3.24575 -4.74769 6.02027
      vertex 2.08766 -5.69658 5.9663
    endloop
  endfacet
  facet normal 0.321394 -0.342021 -0.883022
    outer loop
      vertex -3.77915 -5.57867 3.78528
      vertex 2.08766 -5.69658 5.9663
      vertex -3.71108 -5.69658 3.85573
    endloop
  endfacet
  facet normal 0.321394 -0.34202 -0.883022
    outer loop
      vertex 3.24575 -4.74769 6.02027
      vertex -3.77915 -5.57867 3.78528
      vertex 6.57785 0 5.39414
    endloop
  endfacet
  facet normal 0.755309 -0.469846 0.456895
    outer loop
      vertex 4.32809 2.39414 11.5753
      vertex 4.0073 0.909598 10.579
      vertex 4.61252 2.09146 10.7938
    endloop
  endfacet
  facet normal 0.755309 -0.469846 0.456895
    outer loop
      vertex 5.99477 0.620501 6.99614
      vertex 3.24575 -4.74769 6.02027
      vertex 6.57785 0 5.39414
    endloop
  endfacet
  facet normal -0.755309 0.469846 -0.456895
    outer loop
      vertex -3.35365 4.59396 0
      vertex -3.21319 5.21786 0.40939
      vertex -2.63271 5.75291 0
    endloop
  endfacet
  facet normal -0.755309 0.469846 -0.456896
    outer loop
      vertex -3.21319 5.21786 0.40939
      vertex -3.35365 4.59396 0
      vertex -4.01589 3.65037 0.124442
    endloop
  endfacet
  facet normal -0.755309 0.469846 -0.456895
    outer loop
      vertex -3.21319 5.21786 0.40939
      vertex -2.92333 6.06218 0.798468
      vertex -2.63271 5.75291 0
    endloop
  endfacet
  facet normal -0.755309 0.469846 -0.456895
    outer loop
      vertex -4.15395 4.92949 1.66807
      vertex -2.92333 6.06218 0.798468
      vertex -3.21319 5.21786 0.40939
    endloop
  endfacet
  facet normal -0.755309 0.469846 -0.456895
    outer loop
      vertex -2.92333 6.06218 0.798468
      vertex -4.15395 4.92949 1.66807
      vertex -3.5 6.06218 1.75178
    endloop
  endfacet
  facet normal 0.116977 0.939692 -0.321394
    outer loop
      vertex 3.71108 5.69658 2.14427
      vertex 2.65006 6.06218 2.82701
      vertex 3.6578 5.78887 2.3947
    endloop
  endfacet
  facet normal 0.116978 0.939693 -0.321394
    outer loop
      vertex -2.18026 5.69658 0
      vertex 2.65006 6.06218 2.82701
      vertex 3.71108 5.69658 2.14427
    endloop
  endfacet
  facet normal 0.116978 0.939693 -0.321394
    outer loop
      vertex 2.65006 6.06218 2.82701
      vertex -2.18026 5.69658 0
      vertex -2.92333 6.06218 0.798468
    endloop
  endfacet
  facet normal 0.116978 0.939693 -0.321394
    outer loop
      vertex -2.92333 6.06218 0.798468
      vertex -2.18026 5.69658 0
      vertex -2.63271 5.75291 0
    endloop
  endfacet
  facet normal -0.872287 -0.469846 -0.135502
    outer loop
      vertex -5.51049 -2.35691 1.90724
      vertex -7 0 3.32346
      vertex -6.95978 0.0696582 2.82302
    endloop
  endfacet
  facet normal -0.872287 -0.469846 -0.135501
    outer loop
      vertex -7 0 3.32346
      vertex -5.51049 -2.35691 1.90724
      vertex -5.0421 -3.39118 2.47833
    endloop
  endfacet
  facet normal 0.755309 -0.469846 0.456895
    outer loop
      vertex 0.330027 -3.30244 12.3266
      vertex 4.0073 0.909598 10.579
      vertex 4.32809 2.39414 11.5753
    endloop
  endfacet
  facet normal 0.755309 -0.469846 0.456895
    outer loop
      vertex 4.0073 0.909598 10.579
      vertex 0.330027 -3.30244 12.3266
      vertex 1.31407 -4.34964 9.62292
    endloop
  endfacet
  facet normal -0.321394 0.34202 0.883022
    outer loop
      vertex 2.66697 6.06218 9.54996
      vertex 2.78267 2.11203 11.1221
      vertex 4.32809 2.39414 11.5753
    endloop
  endfacet
  facet normal -0.321394 0.34202 0.883022
    outer loop
      vertex 1.03853 2.38901 10.38
      vertex 2.66697 6.06218 9.54996
      vertex 1.49578 6.06218 9.12368
    endloop
  endfacet
  facet normal -0.321394 0.34202 0.883022
    outer loop
      vertex 2.66697 6.06218 9.54996
      vertex 1.03853 2.38901 10.38
      vertex 2.78267 2.11203 11.1221
    endloop
  endfacet
  facet normal -0.321394 0.34202 0.883022
    outer loop
      vertex 0.802025 0.489162 11.0298
      vertex 4.32809 2.39414 11.5753
      vertex 2.78267 2.11203 11.1221
    endloop
  endfacet
  facet normal -0.321394 0.34202 0.883022
    outer loop
      vertex 4.32809 2.39414 11.5753
      vertex 0.802025 0.489162 11.0298
      vertex 0.330027 -3.30244 12.3266
    endloop
  endfacet
endsolid OpenSCAD_Model
