solid OpenSCAD_Model
  facet normal 0.866025 0.5 0
    outer loop
      vertex 5 0 5
      vertex 2.5 4.33013 0
      vertex 2.5 4.33013 5
    endloop
  endfacet
  facet normal 0.866025 0.5 0
    outer loop
      vertex 2.5 4.33013 0
      vertex 5 0 5
      vertex 5 0 0
    endloop
  endfacet
  facet normal -0.866025 0.5 0
    outer loop
      vertex -5 0 0
      vertex -2.5 4.33013 5
      vertex -2.5 4.33013 0
    endloop
  endfacet
  facet normal -0.866025 0.5 0
    outer loop
      vertex -2.5 4.33013 5
      vertex -5 0 0
      vertex -5 0 5
    endloop
  endfacet
  facet normal 0 1 -0
    outer loop
      vertex 2.5 4.33013 0
      vertex -2.5 4.33013 5
      vertex 2.5 4.33013 5
    endloop
  endfacet
  facet normal 0 1 0
    outer loop
      vertex -2.5 4.33013 5
      vertex 2.5 4.33013 0
      vertex -2.5 4.33013 0
    endloop
  endfacet
  facet normal 0 0 -1
    outer loop
      vertex 2.5 -4.33013 0
      vertex 2.5 4.33013 0
      vertex 5 0 0
    endloop
  endfacet
  facet normal 0 0 -1
    outer loop
      vertex 2.5 -4.33013 0
      vertex -2.5 4.33013 0
      vertex 2.5 4.33013 0
    endloop
  endfacet
  facet normal 0 0 -1
    outer loop
      vertex -2.5 -4.33013 0
      vertex -2.5 4.33013 0
      vertex 2.5 -4.33013 0
    endloop
  endfacet
  facet normal 0 0 -1
    outer loop
      vertex -2.5 4.33013 0
      vertex -2.5 -4.33013 0
      vertex -5 0 0
    endloop
  endfacet
  facet normal 0 -1 0
    outer loop
      vertex -2.5 -4.33013 0
      vertex 2.5 -4.33013 5
      vertex -2.5 -4.33013 5
    endloop
  endfacet
  facet normal 0 -1 -0
    outer loop
      vertex 2.5 -4.33013 5
      vertex -2.5 -4.33013 0
      vertex 2.5 -4.33013 0
    endloop
  endfacet
  facet normal -0.866025 -0.5 0
    outer loop
      vertex -2.5 -4.33013 0
      vertex -5 0 5
      vertex -5 0 0
    endloop
  endfacet
  facet normal -0.866025 -0.5 0
    outer loop
      vertex -5 0 5
      vertex -2.5 -4.33013 0
      vertex -2.5 -4.33013 5
    endloop
  endfacet
  facet normal 0.866025 -0.5 0
    outer loop
      vertex 2.5 -4.33013 5
      vertex 5 0 0
      vertex 5 0 5
    endloop
  endfacet
  facet normal 0.866025 -0.5 0
    outer loop
      vertex 5 0 0
      vertex 2.5 -4.33013 5
      vertex 2.5 -4.33013 0
    endloop
  endfacet
  facet normal 0.794719 0.458831 0.39736
    outer loop
      vertex 2.5 4.33013 5
      vertex 0 0 15
      vertex 5 0 5
    endloop
  endfacet
  facet normal -0.794719 -0.458831 0.39736
    outer loop
      vertex 0 0 15
      vertex -5 0 5
      vertex -2.5 -4.33013 5
    endloop
  endfacet
  facet normal -0.794719 0.458832 0.39736
    outer loop
      vertex -2.5 4.33013 5
      vertex -5 0 5
      vertex 0 0 15
    endloop
  endfacet
  facet normal 0 0.917663 0.39736
    outer loop
      vertex 2.5 4.33013 5
      vertex -2.5 4.33013 5
      vertex 0 0 15
    endloop
  endfacet
  facet normal 0 -0.917663 0.39736
    outer loop
      vertex 0 0 15
      vertex -2.5 -4.33013 5
      vertex 2.5 -4.33013 5
    endloop
  endfacet
  facet normal 0.794719 -0.458831 0.39736
    outer loop
      vertex 5 0 5
      vertex 0 0 15
      vertex 2.5 -4.33013 5
    endloop
  endfacet
endsolid OpenSCAD_Model
