solid OpenSCAD_Model
  facet normal 0.866025 0.5 0
    outer loop
      vertex 5 0 15
      vertex 2.5 4.33013 0
      vertex 2.5 4.33013 15
    endloop
  endfacet
  facet normal 0.866025 0.5 0
    outer loop
      vertex 2.5 4.33013 0
      vertex 5 0 15
      vertex 5 0 0
    endloop
  endfacet
  facet normal -0.866025 0.5 0
    outer loop
      vertex -5 0 0
      vertex -2.5 4.33013 15
      vertex -2.5 4.33013 0
    endloop
  endfacet
  facet normal -0.866025 0.5 0
    outer loop
      vertex -2.5 4.33013 15
      vertex -5 0 0
      vertex -5 0 15
    endloop
  endfacet
  facet normal 0 1 -0
    outer loop
      vertex 2.5 4.33013 0
      vertex -2.5 4.33013 15
      vertex 2.5 4.33013 15
    endloop
  endfacet
  facet normal 0 1 0
    outer loop
      vertex -2.5 4.33013 15
      vertex 2.5 4.33013 0
      vertex -2.5 4.33013 0
    endloop
  endfacet
  facet normal -0.866025 -0.5 0
    outer loop
      vertex -2.5 -4.33013 0
      vertex -5 0 15
      vertex -5 0 0
    endloop
  endfacet
  facet normal -0.866025 -0.5 0
    outer loop
      vertex -5 0 15
      vertex -2.5 -4.33013 0
      vertex -2.5 -4.33013 15
    endloop
  endfacet
  facet normal 0.866025 -0.5 0
    outer loop
      vertex 2.5 -4.33013 15
      vertex 5 0 0
      vertex 5 0 15
    endloop
  endfacet
  facet normal 0.866025 -0.5 0
    outer loop
      vertex 5 0 0
      vertex 2.5 -4.33013 15
      vertex 2.5 -4.33013 0
    endloop
  endfacet
  facet normal 0 0 -1
    outer loop
      vertex 2.5 -4.33013 0
      vertex 2.5 4.33013 0
      vertex 5 0 0
    endloop
  endfacet
  facet normal 0 0 -1
    outer loop
      vertex 2.5 -4.33013 0
      vertex -2.5 4.33013 0
      vertex 2.5 4.33013 0
    endloop
  endfacet
  facet normal 0 0 -1
    outer loop
      vertex -2.5 -4.33013 0
      vertex -2.5 4.33013 0
      vertex 2.5 -4.33013 0
    endloop
  endfacet
  facet normal 0 0 -1
    outer loop
      vertex -2.5 4.33013 0
      vertex -2.5 -4.33013 0
      vertex -5 0 0
    endloop
  endfacet
  facet normal 0 -1 0
    outer loop
      vertex -2.5 -4.33013 0
      vertex 2.5 -4.33013 15
      vertex -2.5 -4.33013 15
    endloop
  endfacet
  facet normal 0 -1 -0
    outer loop
      vertex 2.5 -4.33013 15
      vertex -2.5 -4.33013 0
      vertex 2.5 -4.33013 0
    endloop
  endfacet
  facet normal 0.654654 0.377964 0.654654
    outer loop
      vertex 2.5 4.33013 15
      vertex 0 0 20
      vertex 5 0 15
    endloop
  endfacet
  facet normal -0.654654 -0.377964 0.654654
    outer loop
      vertex 0 0 20
      vertex -5 0 15
      vertex -2.5 -4.33013 15
    endloop
  endfacet
  facet normal -0.654654 0.377965 0.654654
    outer loop
      vertex -2.5 4.33013 15
      vertex -5 0 15
      vertex 0 0 20
    endloop
  endfacet
  facet normal 0 0.755929 0.654654
    outer loop
      vertex 2.5 4.33013 15
      vertex -2.5 4.33013 15
      vertex 0 0 20
    endloop
  endfacet
  facet normal 0 -0.755929 0.654654
    outer loop
      vertex 0 0 20
      vertex -2.5 -4.33013 15
      vertex 2.5 -4.33013 15
    endloop
  endfacet
  facet normal 0.654654 -0.377964 0.654654
    outer loop
      vertex 5 0 15
      vertex 0 0 20
      vertex 2.5 -4.33013 15
    endloop
  endfacet
endsolid OpenSCAD_Model
