solid OpenSCAD_Model
  facet normal 0.866025 0.433013 -0.25
    outer loop
      vertex 5.92763 13.4704 11.1526
      vertex 4 14.9611 7.05698
      vertex 4 26 26.1769
    endloop
  endfacet
  facet normal 0.866025 0.433013 -0.25
    outer loop
      vertex 7.18766 5.28018 1.33153
      vertex 6.23081 6.71381 0.5
      vertex 6.92875 6.96312 3.34956
    endloop
  endfacet
  facet normal 0.866025 0.433013 -0.25
    outer loop
      vertex 6.23081 6.71381 0.5
      vertex 7.18766 5.28018 1.33153
      vertex 6.97919 5.44139 0.888594
    endloop
  endfacet
  facet normal 0.866027 0.433012 -0.249996
    outer loop
      vertex 7.29435 4.58673 0.5
      vertex 6.97919 5.44139 0.888594
      vertex 7.28007 4.67955 0.611306
    endloop
  endfacet
  facet normal 0.866025 0.433013 -0.25
    outer loop
      vertex 6.97919 5.44139 0.888594
      vertex 7.29435 4.58673 0.5
      vertex 6.23081 6.71381 0.5
    endloop
  endfacet
  facet normal 0 0.5 0.866025
    outer loop
      vertex -4 26 26.1769
      vertex -8 20 29.641
      vertex 8 20 29.641
    endloop
  endfacet
  facet normal 0.866026 0.433012 -0.249999
    outer loop
      vertex 8 20 29.641
      vertex 8 13.7873 18.8803
      vertex 7.85802 14.0316 18.8115
    endloop
  endfacet
  facet normal 0.866025 0.433013 -0.25
    outer loop
      vertex 7.85802 14.0316 18.8115
      vertex 4 26 26.1769
      vertex 8 20 29.641
    endloop
  endfacet
  facet normal 0.866025 0.433013 -0.25
    outer loop
      vertex 7.48271 13.7251 16.9807
      vertex 4 26 26.1769
      vertex 7.85802 14.0316 18.8115
    endloop
  endfacet
  facet normal 0.866025 0.433013 -0.25
    outer loop
      vertex 7.48271 13.7251 16.9807
      vertex 5.92763 13.4704 11.1526
      vertex 4 26 26.1769
    endloop
  endfacet
  facet normal 0.866027 0.43301 -0.25
    outer loop
      vertex 7.48271 13.7251 16.9807
      vertex 6 13.4145 11.3063
      vertex 5.92763 13.4704 11.1526
    endloop
  endfacet
  facet normal 0.866025 0.433013 -0.25
    outer loop
      vertex 6 13.4145 11.3063
      vertex 7.48271 13.7251 16.9807
      vertex 7.33794 10.8672 11.5292
    endloop
  endfacet
  facet normal 0.866025 0.433013 -0.25
    outer loop
      vertex 8 4.65198 3.05747
      vertex 6.92875 6.96312 3.34956
      vertex 8 7.34576 7.72323
    endloop
  endfacet
  facet normal 0.866025 0.433013 -0.25
    outer loop
      vertex 6.92875 6.96312 3.34956
      vertex 8 4.65198 3.05747
      vertex 7.18766 5.28018 1.33153
    endloop
  endfacet
  facet normal 0.866026 0.433012 -0.249997
    outer loop
      vertex 7.29435 4.58673 0.5
      vertex 7.28007 4.67955 0.611306
      vertex 7.40084 4.37374 0.5
    endloop
  endfacet
  facet normal -0.866025 0.433013 -0.25
    outer loop
      vertex -4 26 26.1769
      vertex -5.1113 21.175 21.6695
      vertex -5.42983 21.4584 23.2638
    endloop
  endfacet
  facet normal -0.866025 0.433013 -0.250001
    outer loop
      vertex -5.1113 21.175 21.6695
      vertex -4 26 26.1769
      vertex -4.78672 20.8863 20.045
    endloop
  endfacet
  facet normal -0.866025 0.433013 -0.25
    outer loop
      vertex -5.42983 21.4584 23.2638
      vertex -8 20 29.641
      vertex -4 26 26.1769
    endloop
  endfacet
  facet normal -0.866025 0.433013 -0.25
    outer loop
      vertex -6.74737 18.8311 23.2772
      vertex -8 20 29.641
      vertex -5.42983 21.4584 23.2638
    endloop
  endfacet
  facet normal -0.866025 0.433013 -0.25
    outer loop
      vertex -8 20 29.641
      vertex -6.74737 18.8311 23.2772
      vertex -8 16.3332 23.29
    endloop
  endfacet
  facet normal -0.866025 0.433013 -0.25
    outer loop
      vertex -8 3.17543 0.5
      vertex -6.50727 9.70274 6.63467
      vertex -7.29435 4.58673 0.5
    endloop
  endfacet
  facet normal -0.866025 0.433013 -0.25
    outer loop
      vertex -6.50727 9.70274 6.63467
      vertex -8 3.17543 0.5
      vertex -8 9.87559 12.105
    endloop
  endfacet
  facet normal 0 0.5 0.866025
    outer loop
      vertex 4 26 26.1769
      vertex -4 26 26.1769
      vertex 8 20 29.641
    endloop
  endfacet
  facet normal 0 0.866025 -0.5
    outer loop
      vertex 4 26 26.1769
      vertex -1.00688 18.5172 13.2163
      vertex -4 26 26.1769
    endloop
  endfacet
  facet normal -1.23086e-07 0.866025 -0.5
    outer loop
      vertex 4 14.9611 7.05698
      vertex -1.00688 18.5172 13.2163
      vertex 4 26 26.1769
    endloop
  endfacet
  facet normal 1.74816e-07 0.866025 -0.5
    outer loop
      vertex -1.00688 18.5172 13.2163
      vertex 4 14.9611 7.05698
      vertex 2.63617 14.9611 7.05698
    endloop
  endfacet
  facet normal 0.866025 -0.433013 0.25
    outer loop
      vertex 8 20 29.641
      vertex 7.27692 12.4099 18.9994
      vertex 8 13.7873 18.8803
    endloop
  endfacet
  facet normal 0.866025 -0.433013 0.25
    outer loop
      vertex 8 20 29.641
      vertex 6.78505 11.473 19.0805
      vertex 7.27692 12.4099 18.9994
    endloop
  endfacet
  facet normal 0.866026 -0.433012 0.25
    outer loop
      vertex 6.78505 11.473 19.0805
      vertex 8 20 29.641
      vertex 6.64798 11.2119 19.103
    endloop
  endfacet
  facet normal 0.866025 -0.433013 0.25
    outer loop
      vertex 6.96826 5.3815 7.89508
      vertex 8 4.65198 3.05747
      vertex 8 7.34576 7.72323
    endloop
  endfacet
  facet normal 0.866025 -0.433013 0.25
    outer loop
      vertex 6.5 3.49201 6.24449
      vertex 6.96826 5.3815 7.89508
      vertex 6 3.53809 8.05636
    endloop
  endfacet
  facet normal 0.866025 -0.433013 0.25
    outer loop
      vertex 6.96826 5.3815 7.89508
      vertex 6.5 3.49201 6.24449
      vertex 8 4.65198 3.05747
    endloop
  endfacet
  facet normal 0.866025 -0.433013 0.25
    outer loop
      vertex 5.08624 1.06053 6.93047
      vertex 6 3.53809 8.05636
      vertex 5.39548 3.07061 9.34078
    endloop
  endfacet
  facet normal 0.866025 -0.433013 0.25
    outer loop
      vertex 6 3.53809 8.05636
      vertex 5.48873 1.56672 6.41293
      vertex 6.5 3.49201 6.24449
    endloop
  endfacet
  facet normal 0.866025 -0.433013 0.25
    outer loop
      vertex 6 3.53809 8.05636
      vertex 5.08624 1.06053 6.93047
      vertex 5.48873 1.56672 6.41293
    endloop
  endfacet
  facet normal 0.866025 -0.433013 0.25
    outer loop
      vertex 5.48873 1.56672 6.41293
      vertex 5.08624 1.06053 6.93047
      vertex 5.25267 1.11729 6.45225
    endloop
  endfacet
  facet normal 0.866025 -0.433013 0.25
    outer loop
      vertex 5.35631 -1.34749 1.82408
      vertex 6.36074 0.150202 0.938724
      vertex 6.04571 0.26273 2.22492
    endloop
  endfacet
  facet normal 0.866025 -0.433013 0.25
    outer loop
      vertex 5.35631 -1.34749 1.82408
      vertex 6.4682 0.111819 0.5
      vertex 6.36074 0.150202 0.938724
    endloop
  endfacet
  facet normal 0.866025 -0.433013 0.25
    outer loop
      vertex 4.3565 -3.68274 1.24276
      vertex 6.4682 0.111819 0.5
      vertex 5.35631 -1.34749 1.82408
    endloop
  endfacet
  facet normal 0.866025 -0.433013 0.25
    outer loop
      vertex 6.4682 0.111819 0.5
      vertex 4.3565 -3.68274 1.24276
      vertex 4.26121 -4.30216 0.5
    endloop
  endfacet
  facet normal -0.866026 0.433012 -0.25
    outer loop
      vertex -4 20.1865 16.1076
      vertex -4.78672 20.8863 20.045
      vertex -4 26 26.1769
    endloop
  endfacet
  facet normal -0.866025 0.433013 -0.25
    outer loop
      vertex -4.83327 9.50889 0.5
      vertex -7.29435 4.58673 0.5
      vertex -6.50727 9.70274 6.63467
    endloop
  endfacet
  facet normal 1.10219e-06 0.866025 -0.5
    outer loop
      vertex -4 26 26.1769
      vertex -2.59523 20.0676 15.9018
      vertex -4 20.1865 16.1076
    endloop
  endfacet
  facet normal 3.52636e-08 0.866025 -0.5
    outer loop
      vertex -2.59523 20.0676 15.9018
      vertex -4 26 26.1769
      vertex -1.00688 18.5172 13.2163
    endloop
  endfacet
  facet normal 5.96046e-08 0.5 0.866025
    outer loop
      vertex 8 20 29.641
      vertex -4 14 33.1051
      vertex 4 14 33.1051
    endloop
  endfacet
  facet normal -0.866025 -0.433013 0.250001
    outer loop
      vertex -7.06864 6.03028 8.67109
      vertex -8 9.87559 12.105
      vertex -7.23093 6.06649 8.1716
    endloop
  endfacet
  facet normal -0.866025 -0.433013 0.25
    outer loop
      vertex -8 3.17543 0.5
      vertex -7.23093 6.06649 8.1716
      vertex -8 9.87559 12.105
    endloop
  endfacet
  facet normal -0.866025 -0.433013 0.25
    outer loop
      vertex -8 3.17543 0.5
      vertex -7.32635 3.14768 2.78556
      vertex -7.23093 6.06649 8.1716
    endloop
  endfacet
  facet normal -0.866025 -0.433013 0.25
    outer loop
      vertex -8 3.17543 0.5
      vertex -7.3555 2.25574 1.13966
      vertex -7.32635 3.14768 2.78556
    endloop
  endfacet
  facet normal -0.866025 -0.433013 0.25
    outer loop
      vertex -7.3555 2.25574 1.13966
      vertex -8 3.17543 0.5
      vertex -7.42265 2.02073 0.5
    endloop
  endfacet
  facet normal -0.866025 -0.433013 0.25
    outer loop
      vertex -5.37667 12.0968 25.0398
      vertex -8 20 29.641
      vertex -8 16.3332 23.29
    endloop
  endfacet
  facet normal -0.866025 -0.433013 0.25
    outer loop
      vertex -8 20 29.641
      vertex -5.37667 12.0968 25.0398
      vertex -4 14 33.1051
    endloop
  endfacet
  facet normal -0.866026 -0.433012 0.25
    outer loop
      vertex -5.28416 10.9013 23.2895
      vertex -4 14 33.1051
      vertex -5.37667 12.0968 25.0398
    endloop
  endfacet
  facet normal -0.866025 -0.433013 0.25
    outer loop
      vertex -6.55477 5.05829 8.76763
      vertex -5.57089 10.6947 21.9385
      vertex -7.63593 9.207 12.2081
    endloop
  endfacet
  facet normal -0.866025 -0.433013 0.25
    outer loop
      vertex -8 9.87559 12.105
      vertex -7.06864 6.03028 8.67109
      vertex -7.63593 9.207 12.2081
    endloop
  endfacet
  facet normal -0.866025 -0.433013 0.25
    outer loop
      vertex -6.55477 5.05829 8.76763
      vertex -7.63593 9.207 12.2081
      vertex -7.06864 6.03028 8.67109
    endloop
  endfacet
  facet normal -0.866025 -0.433013 0.25
    outer loop
      vertex -5.57089 10.6947 21.9385
      vertex -6.55477 5.05829 8.76763
      vertex -5.28416 10.9013 23.2895
    endloop
  endfacet
  facet normal -0.866025 -0.433013 0.25
    outer loop
      vertex -5.28416 10.9013 23.2895
      vertex -6.55477 5.05829 8.76763
      vertex -4 14 33.1051
    endloop
  endfacet
  facet normal 0 0.5 0.866025
    outer loop
      vertex 8 20 29.641
      vertex -8 20 29.641
      vertex -4 14 33.1051
    endloop
  endfacet
  facet normal -1.03238e-07 -0.866025 0.5
    outer loop
      vertex -4 14 33.1051
      vertex 0 8.77455 24.0544
      vertex 4 14 33.1051
    endloop
  endfacet
  facet normal -9.61075e-08 -0.866025 0.5
    outer loop
      vertex -4 14 33.1051
      vertex -0.736326 7.94212 22.6126
      vertex 0 8.77455 24.0544
    endloop
  endfacet
  facet normal 1.48613e-07 -0.866025 0.5
    outer loop
      vertex -4 14 33.1051
      vertex -3 5.383 18.18
      vertex -0.736326 7.94212 22.6126
    endloop
  endfacet
  facet normal -5.16191e-08 -0.866025 0.5
    outer loop
      vertex 0 1.99146 12.3057
      vertex 2.63351 1.69898 11.7991
      vertex 4 1.99146 12.3057
    endloop
  endfacet
  facet normal -3.71455e-08 -0.866025 0.5
    outer loop
      vertex 0 1.99146 12.3057
      vertex -4 0.225841 9.24757
      vertex 2.63351 1.69898 11.7991
    endloop
  endfacet
  facet normal -1.10897e-07 -0.866025 0.5
    outer loop
      vertex -1.75352 3.97384 15.7393
      vertex -4 0.225841 9.24757
      vertex 0 1.99146 12.3057
    endloop
  endfacet
  facet normal 2.95454e-09 -0.866025 0.5
    outer loop
      vertex -3 5.383 18.18
      vertex -4 0.225841 9.24757
      vertex -1.75352 3.97384 15.7393
    endloop
  endfacet
  facet normal -4.9721e-07 -0.866025 0.5
    outer loop
      vertex -4 0.225841 9.24757
      vertex -3 5.383 18.18
      vertex -4 14 33.1051
    endloop
  endfacet
  facet normal 0 -0.866025 0.5
    outer loop
      vertex 4 14 33.1051
      vertex 0 8.77455 24.0544
      vertex 4 8.77455 24.0544
    endloop
  endfacet
  facet normal -1.84403e-07 -0.866025 0.5
    outer loop
      vertex 3.99813 0.691464 10.0541
      vertex 4 1.99146 12.3057
      vertex 2.63351 1.69898 11.7991
    endloop
  endfacet
  facet normal 0.000241261 -0.866025 0.5
    outer loop
      vertex 4 1.99146 12.3057
      vertex 3.99813 0.691464 10.0541
      vertex 4 0.690086 10.0517
    endloop
  endfacet
  facet normal 0 -0.866025 0.5
    outer loop
      vertex 4 -4.51541 1.03548
      vertex 2.60786 -4.82457 0.5
      vertex 4 -4.82457 0.5
    endloop
  endfacet
  facet normal -0.866025 -0.433013 0.25
    outer loop
      vertex -5.28033 2.64763 9.00705
      vertex -4 14 33.1051
      vertex -6.55477 5.05829 8.76763
    endloop
  endfacet
  facet normal -0.866025 -0.433013 0.25
    outer loop
      vertex -4 14 33.1051
      vertex -5.28033 2.64763 9.00705
      vertex -4 0.225841 9.24757
    endloop
  endfacet
  facet normal -0.866024 -0.433015 0.250001
    outer loop
      vertex -7.3555 2.25574 1.13966
      vertex -7.42265 2.02073 0.5
      vertex -7.36683 1.9091 0.5
    endloop
  endfacet
  facet normal 0.866025 -0.433013 0.25
    outer loop
      vertex 4 8.77455 24.0544
      vertex 8 20 29.641
      vertex 4 14 33.1051
    endloop
  endfacet
  facet normal 0.866025 -0.433013 0.25
    outer loop
      vertex 8 20 29.641
      vertex 4 8.77455 24.0544
      vertex 6.64798 11.2119 19.103
    endloop
  endfacet
  facet normal 0.866025 -0.433013 0.25
    outer loop
      vertex 6 10.3212 19.805
      vertex 6.64798 11.2119 19.103
      vertex 4 8.77455 24.0544
    endloop
  endfacet
  facet normal 0.866025 -0.433013 0.25
    outer loop
      vertex 6.51161 10.9521 19.1255
      vertex 6 10.3212 19.805
      vertex 6.21699 10.3909 19.174
    endloop
  endfacet
  facet normal 0.866025 -0.433012 0.250001
    outer loop
      vertex 6.64798 11.2119 19.103
      vertex 6 10.3212 19.805
      vertex 6.51161 10.9521 19.1255
    endloop
  endfacet
  facet normal 0.866025 -0.433013 0.25
    outer loop
      vertex 6.21699 10.3909 19.174
      vertex 6 10.3212 19.805
      vertex 6.42537 10.1692 18.0683
    endloop
  endfacet
  facet normal 0.866025 -0.433013 0.25
    outer loop
      vertex 4 0.690086 10.0517
      vertex 5.39548 3.07061 9.34078
      vertex 4 1.99146 12.3057
    endloop
  endfacet
  facet normal 0.866025 -0.433013 0.25
    outer loop
      vertex 5.39548 3.07061 9.34078
      vertex 4 0.690086 10.0517
      vertex 5.08624 1.06053 6.93047
    endloop
  endfacet
  facet normal 0.866025 -0.433013 0.25
    outer loop
      vertex 4 -4.51541 1.03548
      vertex 4.26121 -4.30216 0.5
      vertex 4.3565 -3.68274 1.24276
    endloop
  endfacet
  facet normal 0.866025 -0.433013 0.25
    outer loop
      vertex 4.26121 -4.30216 0.5
      vertex 4 -4.51541 1.03548
      vertex 4 -4.82457 0.5
    endloop
  endfacet
  facet normal 0.866025 0.469846 0.17101
    outer loop
      vertex 8.21503 10.5929 7.84129
      vertex 6 16.8828 1.77719
      vertex 6 13.4145 11.3063
    endloop
  endfacet
  facet normal 0.866025 0.469846 0.17101
    outer loop
      vertex 6 16.8828 1.77719
      vertex 8.21503 10.5929 7.84129
      vertex 8.15597 13.3737 0.5
    endloop
  endfacet
  facet normal 0.866025 0.469846 0.17101
    outer loop
      vertex 8.21503 10.5929 7.84129
      vertex 6 13.4145 11.3063
      vertex 7.33794 10.8672 11.5292
    endloop
  endfacet
  facet normal 0.866026 0.469846 0.17101
    outer loop
      vertex 8.15597 13.3737 0.5
      vertex 8.21503 10.5929 7.84129
      vertex 8.94995 11.9103 0.5
    endloop
  endfacet
  facet normal 0.866025 0.469847 0.17101
    outer loop
      vertex 6 10.3212 19.805
      vertex 7.21879 8.80698 17.7931
      vertex 6.42537 10.1692 18.0683
    endloop
  endfacet
  facet normal 0.866025 0.469846 0.17101
    outer loop
      vertex 7.21879 8.80698 17.7931
      vertex 6 10.3212 19.805
      vertex 6 6.62218 29.968
    endloop
  endfacet
  facet normal -5.23265e-08 0.34202 -0.939693
    outer loop
      vertex 8.15597 13.3737 0.5
      vertex 4.25937 14.8104 1.02292
      vertex 6 16.8828 1.77719
    endloop
  endfacet
  facet normal -2.56411e-08 0.34202 -0.939693
    outer loop
      vertex 8.15597 13.3737 0.5
      vertex 2.74937 13.8141 0.660283
      vertex 4.25937 14.8104 1.02292
    endloop
  endfacet
  facet normal 0 0.34202 -0.939693
    outer loop
      vertex 2.74937 13.8141 0.660283
      vertex 8.15597 13.3737 0.5
      vertex 2.08196 13.3737 0.5
    endloop
  endfacet
  facet normal 0 0.34202 -0.939693
    outer loop
      vertex 6 16.8828 1.77719
      vertex 4.25937 14.8104 1.02292
      vertex 2.85769 16.8828 1.77719
    endloop
  endfacet
  facet normal 8.1604e-07 0.939693 0.34202
    outer loop
      vertex 6 16.8828 1.77719
      vertex 5.92763 13.4704 11.1526
      vertex 6 13.4145 11.3063
    endloop
  endfacet
  facet normal 3.13785e-07 0.939693 0.34202
    outer loop
      vertex 6 16.8828 1.77719
      vertex 4 14.9611 7.05698
      vertex 5.92763 13.4704 11.1526
    endloop
  endfacet
  facet normal -0 0.939693 0.34202
    outer loop
      vertex 2.85769 16.8828 1.77719
      vertex 4 14.9611 7.05698
      vertex 6 16.8828 1.77719
    endloop
  endfacet
  facet normal -1.19581e-07 0.939693 0.34202
    outer loop
      vertex 4 14.9611 7.05698
      vertex 2.85769 16.8828 1.77719
      vertex 2.63617 14.9611 7.05698
    endloop
  endfacet
  facet normal 0 0.939693 0.34202
    outer loop
      vertex 6 6.62218 29.968
      vertex 4 8.77455 24.0544
      vertex 0 6.62218 29.968
    endloop
  endfacet
  facet normal 8.31882e-08 0.939693 0.34202
    outer loop
      vertex 4 8.77455 24.0544
      vertex 6 6.62218 29.968
      vertex 6 10.3212 19.805
    endloop
  endfacet
  facet normal 0 0.939693 0.34202
    outer loop
      vertex 0 6.62218 29.968
      vertex 4 8.77455 24.0544
      vertex 0 8.77455 24.0544
    endloop
  endfacet
  facet normal 0.866025 0.469846 0.17101
    outer loop
      vertex 6 6.62218 29.968
      vertex 7.34731 8.58631 17.7486
      vertex 7.21879 8.80698 17.7931
    endloop
  endfacet
  facet normal 0.866025 0.469846 0.17101
    outer loop
      vertex 9 1.7394 28.1908
      vertex 7.34731 8.58631 17.7486
      vertex 6 6.62218 29.968
    endloop
  endfacet
  facet normal 0.866025 0.469846 0.17101
    outer loop
      vertex 7.34731 8.58631 17.7486
      vertex 9 1.7394 28.1908
      vertex 9 7.56812 12.1765
    endloop
  endfacet
  facet normal 0.866025 0.469846 0.17101
    outer loop
      vertex 9 10.3473 4.54077
      vertex 8.94995 11.9103 0.5
      vertex 8.21503 10.5929 7.84129
    endloop
  endfacet
  facet normal 0.866023 0.469849 0.171011
    outer loop
      vertex 8.94995 11.9103 0.5
      vertex 9 10.3473 4.54077
      vertex 9 11.818 0.5
    endloop
  endfacet
  facet normal 0.866025 -0.469846 -0.17101
    outer loop
      vertex 9 1.7394 28.1908
      vertex 6 3.53809 8.05636
      vertex 6.96826 5.3815 7.89508
    endloop
  endfacet
  facet normal 0.866025 -0.469846 -0.17101
    outer loop
      vertex 6 3.53809 8.05636
      vertex 9 1.7394 28.1908
      vertex 6 -3.14339 26.4136
    endloop
  endfacet
  facet normal -0.866025 0.469846 0.17101
    outer loop
      vertex 0 8.77455 24.0544
      vertex -0.736326 7.94212 22.6126
      vertex 0 6.62218 29.968
    endloop
  endfacet
  facet normal 5.43078e-07 -0.34202 0.939693
    outer loop
      vertex 6 6.62218 29.968
      vertex 6 -3.14339 26.4136
      vertex 9 1.7394 28.1908
    endloop
  endfacet
  facet normal -0.866025 -0.469846 -0.17101
    outer loop
      vertex -1.75352 3.97384 15.7393
      vertex -3 1.7394 28.1908
      vertex -3 5.383 18.18
    endloop
  endfacet
  facet normal -5.601e-08 -0.939693 -0.34202
    outer loop
      vertex 4 1.99146 12.3057
      vertex 0 -3.14339 26.4136
      vertex 0 1.99146 12.3057
    endloop
  endfacet
  facet normal 0 -0.939693 -0.34202
    outer loop
      vertex 0 -3.14339 26.4136
      vertex 4 1.99146 12.3057
      vertex 6 -3.14339 26.4136
    endloop
  endfacet
  facet normal 6.26349e-08 -0.939693 -0.34202
    outer loop
      vertex 5.39548 3.07061 9.34078
      vertex 6 -3.14339 26.4136
      vertex 4 1.99146 12.3057
    endloop
  endfacet
  facet normal -1.79349e-07 -0.939693 -0.34202
    outer loop
      vertex 6 -3.14339 26.4136
      vertex 5.39548 3.07061 9.34078
      vertex 6 3.53809 8.05636
    endloop
  endfacet
  facet normal -0.866025 0.469846 0.17101
    outer loop
      vertex -3 1.7394 28.1908
      vertex -0.736326 7.94212 22.6126
      vertex -3 5.383 18.18
    endloop
  endfacet
  facet normal -0.866025 0.469846 0.17101
    outer loop
      vertex -0.736326 7.94212 22.6126
      vertex -3 1.7394 28.1908
      vertex 0 6.62218 29.968
    endloop
  endfacet
  facet normal 0.866026 -0.469846 -0.17101
    outer loop
      vertex 9 7.56812 12.1765
      vertex 6.96826 5.3815 7.89508
      vertex 8.58492 7.32961 10.7297
    endloop
  endfacet
  facet normal 0.866025 -0.469846 -0.17101
    outer loop
      vertex 6.96826 5.3815 7.89508
      vertex 9 7.56812 12.1765
      vertex 9 1.7394 28.1908
    endloop
  endfacet
  facet normal 0.866026 -0.469846 -0.17101
    outer loop
      vertex 8.58492 7.32961 10.7297
      vertex 8 7.34576 7.72323
      vertex 8.41317 7.98375 8.06273
    endloop
  endfacet
  facet normal 0.866025 -0.469846 -0.17101
    outer loop
      vertex 8 7.34576 7.72323
      vertex 8.58492 7.32961 10.7297
      vertex 6.96826 5.3815 7.89508
    endloop
  endfacet
  facet normal 0.866025 -0.469846 -0.17101
    outer loop
      vertex 8.17745 8.88152 4.40243
      vertex 9 11.818 0.5
      vertex 9 10.3473 4.54077
    endloop
  endfacet
  facet normal 0.866026 -0.469846 -0.17101
    outer loop
      vertex 8 7.34576 7.72323
      vertex 8.17745 8.88152 4.40243
      vertex 8.41317 7.98375 8.06273
    endloop
  endfacet
  facet normal 0.866025 -0.469846 -0.17101
    outer loop
      vertex 6.92875 6.96312 3.34956
      vertex 8.17745 8.88152 4.40243
      vertex 8 7.34576 7.72323
    endloop
  endfacet
  facet normal 0.866025 -0.469846 -0.17101
    outer loop
      vertex 6.23081 6.71381 0.5
      vertex 8.17745 8.88152 4.40243
      vertex 6.92875 6.96312 3.34956
    endloop
  endfacet
  facet normal 0.866025 -0.469846 -0.17101
    outer loop
      vertex 8.17745 8.88152 4.40243
      vertex 6.23081 6.71381 0.5
      vertex 9 11.818 0.5
    endloop
  endfacet
  facet normal 0 -0.34202 0.939693
    outer loop
      vertex 0 6.62218 29.968
      vertex 6 -3.14339 26.4136
      vertex 6 6.62218 29.968
    endloop
  endfacet
  facet normal 0 -0.34202 0.939693
    outer loop
      vertex 6 -3.14339 26.4136
      vertex 0 6.62218 29.968
      vertex 0 -3.14339 26.4136
    endloop
  endfacet
  facet normal -5.43078e-07 -0.34202 0.939693
    outer loop
      vertex 0 6.62218 29.968
      vertex -3 1.7394 28.1908
      vertex 0 -3.14339 26.4136
    endloop
  endfacet
  facet normal -0.866025 -0.469846 -0.17101
    outer loop
      vertex 0 -3.14339 26.4136
      vertex -1.75352 3.97384 15.7393
      vertex 0 1.99146 12.3057
    endloop
  endfacet
  facet normal -0.866025 -0.469846 -0.17101
    outer loop
      vertex -1.75352 3.97384 15.7393
      vertex 0 -3.14339 26.4136
      vertex -3 1.7394 28.1908
    endloop
  endfacet
  facet normal 0.866025 0.469846 0.17101
    outer loop
      vertex 9.5 5.44139 0.888594
      vertex 10.9619 2.88825 0.5
      vertex 10.156 4.37374 0.5
    endloop
  endfacet
  facet normal 0.866025 0.469846 0.17101
    outer loop
      vertex 10.9619 2.88825 0.5
      vertex 9.5 5.44139 0.888594
      vertex 9.5 -1.39901 19.6824
    endloop
  endfacet
  facet normal 0.866025 0.469847 0.17101
    outer loop
      vertex 9.5 -1.39901 19.6824
      vertex 11 2.81801 0.5
      vertex 10.9619 2.88825 0.5
    endloop
  endfacet
  facet normal 0.866025 0.469846 0.17101
    outer loop
      vertex 11 2.81801 0.5
      vertex 9.5 -1.39901 19.6824
      vertex 11 -3.8404 18.7939
    endloop
  endfacet
  facet normal 0.866026 -0.469845 -0.17101
    outer loop
      vertex 11 -3.8404 18.7939
      vertex 9.5 0.0531994 0.5
      vertex 9.60582 0.248257 0.5
    endloop
  endfacet
  facet normal 0.866025 -0.469846 -0.17101
    outer loop
      vertex 9.5 0.0531994 0.5
      vertex 11 -3.8404 18.7939
      vertex 9.5 -6.2818 17.9053
    endloop
  endfacet
  facet normal 0 0.939693 0.34202
    outer loop
      vertex 9.5 -1.39901 19.6824
      vertex 6.5 3.49201 6.24449
      vertex 6.5 -1.39901 19.6824
    endloop
  endfacet
  facet normal 5.69767e-08 0.939693 0.34202
    outer loop
      vertex 9.5 -1.39901 19.6824
      vertex 8 4.65198 3.05747
      vertex 6.5 3.49201 6.24449
    endloop
  endfacet
  facet normal -6.89314e-08 0.939693 0.34202
    outer loop
      vertex 9.5 5.44139 0.888594
      vertex 8 4.65198 3.05747
      vertex 9.5 -1.39901 19.6824
    endloop
  endfacet
  facet normal -2.168e-08 0.939693 0.34202
    outer loop
      vertex 9.5 5.44139 0.888594
      vertex 7.18766 5.28018 1.33153
      vertex 8 4.65198 3.05747
    endloop
  endfacet
  facet normal 0 0.939693 0.34202
    outer loop
      vertex 7.18766 5.28018 1.33153
      vertex 9.5 5.44139 0.888594
      vertex 6.97919 5.44139 0.888594
    endloop
  endfacet
  facet normal 0 0.34202 -0.939693
    outer loop
      vertex 7.40084 4.37374 0.5
      vertex 9.5 5.44139 0.888594
      vertex 10.156 4.37374 0.5
    endloop
  endfacet
  facet normal -3.06234e-08 0.34202 -0.939693
    outer loop
      vertex 7.28007 4.67955 0.611306
      vertex 9.5 5.44139 0.888594
      vertex 7.40084 4.37374 0.5
    endloop
  endfacet
  facet normal 0 0.34202 -0.939693
    outer loop
      vertex 9.5 5.44139 0.888594
      vertex 7.28007 4.67955 0.611306
      vertex 6.97919 5.44139 0.888594
    endloop
  endfacet
  facet normal 0 -0.939693 -0.34202
    outer loop
      vertex 6.5 -1.14784 3.79984
      vertex 9.5 -6.2818 17.9053
      vertex 6.5 -6.2818 17.9053
    endloop
  endfacet
  facet normal 2.07671e-08 -0.939693 -0.34202
    outer loop
      vertex 9.5 0.0531994 0.5
      vertex 6.5 -1.14784 3.79984
      vertex 7.16229 -0.690244 2.54259
    endloop
  endfacet
  facet normal 1.70973e-06 -0.939693 -0.34202
    outer loop
      vertex 6.5 0.0531994 0.5
      vertex 6.53863 -0.610334 2.32304
      vertex 6.5 -0.605384 2.30944
    endloop
  endfacet
  facet normal -1.20278e-07 -0.939693 -0.34202
    outer loop
      vertex 6.53863 -0.610334 2.32304
      vertex 6.5 0.0531994 0.5
      vertex 7.16229 -0.690244 2.54259
    endloop
  endfacet
  facet normal 3.10776e-08 -0.939693 -0.34202
    outer loop
      vertex 6.5 -1.14784 3.79984
      vertex 9.5 0.0531994 0.5
      vertex 9.5 -6.2818 17.9053
    endloop
  endfacet
  facet normal -0 -0.939693 -0.34202
    outer loop
      vertex 9.5 0.0531994 0.5
      vertex 7.16229 -0.690244 2.54259
      vertex 6.5 0.0531994 0.5
    endloop
  endfacet
  facet normal -0.866025 0.469846 0.17101
    outer loop
      vertex 6.5 3.49201 6.24449
      vertex 5.48873 1.56672 6.41293
      vertex 6.5 -1.39901 19.6824
    endloop
  endfacet
  facet normal 0.866025 -0.469846 -0.17101
    outer loop
      vertex 11 -3.8404 18.7939
      vertex 9.60582 0.248257 0.5
      vertex 11 2.81801 0.5
    endloop
  endfacet
  facet normal 0 -0.34202 0.939693
    outer loop
      vertex 9.5 -1.39901 19.6824
      vertex 9.5 -6.2818 17.9053
      vertex 11 -3.8404 18.7939
    endloop
  endfacet
  facet normal 0 -0.34202 0.939693
    outer loop
      vertex 6.5 -1.39901 19.6824
      vertex 9.5 -6.2818 17.9053
      vertex 9.5 -1.39901 19.6824
    endloop
  endfacet
  facet normal 0 -0.34202 0.939693
    outer loop
      vertex 6.5 -1.39901 19.6824
      vertex 6.5 -6.2818 17.9053
      vertex 9.5 -6.2818 17.9053
    endloop
  endfacet
  facet normal 0 -0.34202 0.939693
    outer loop
      vertex 6.5 -6.2818 17.9053
      vertex 6.5 -1.39901 19.6824
      vertex 5 -3.8404 18.7939
    endloop
  endfacet
  facet normal -0.866025 0.469846 0.17101
    outer loop
      vertex 5 -0.361548 9.23578
      vertex 5.48873 1.56672 6.41293
      vertex 5.25267 1.11729 6.45225
    endloop
  endfacet
  facet normal -0.866025 0.469846 0.17101
    outer loop
      vertex 5 -0.361548 9.23578
      vertex 6.5 -1.39901 19.6824
      vertex 5.48873 1.56672 6.41293
    endloop
  endfacet
  facet normal -0.866025 0.469846 0.17101
    outer loop
      vertex 6.5 -1.39901 19.6824
      vertex 5 -0.361548 9.23578
      vertex 5 -3.8404 18.7939
    endloop
  endfacet
  facet normal -0.866025 -0.469846 -0.17101
    outer loop
      vertex 5.1188 -0.613597 9.32664
      vertex 5 -3.8404 18.7939
      vertex 5 -0.361548 9.23578
    endloop
  endfacet
  facet normal -0.866026 -0.469846 -0.17101
    outer loop
      vertex 5 -3.8404 18.7939
      vertex 5.1188 -0.613597 9.32664
      vertex 5.98593 -0.949 5.85688
    endloop
  endfacet
  facet normal -0.866026 -0.469846 -0.17101
    outer loop
      vertex 6.25968 -0.146159 2.26473
      vertex 6.04571 0.26273 2.22492
      vertex 6.36074 0.150202 0.938724
    endloop
  endfacet
  facet normal -0.866025 -0.469846 -0.17101
    outer loop
      vertex 6.5 -6.2818 17.9053
      vertex 5.98593 -0.949 5.85688
      vertex 6.5 -1.14784 3.79984
    endloop
  endfacet
  facet normal -0.866026 -0.469846 -0.17101
    outer loop
      vertex 5.98593 -0.949 5.85688
      vertex 6.5 -6.2818 17.9053
      vertex 5 -3.8404 18.7939
    endloop
  endfacet
  facet normal -0.866027 -0.469844 -0.171011
    outer loop
      vertex 6.5 0.0531994 0.5
      vertex 6.36074 0.150202 0.938724
      vertex 6.4682 0.111819 0.5
    endloop
  endfacet
  facet normal -0.866026 -0.469846 -0.17101
    outer loop
      vertex 6.5 -0.605384 2.30944
      vertex 6.36074 0.150202 0.938724
      vertex 6.5 0.0531994 0.5
    endloop
  endfacet
  facet normal -0.866025 -0.469846 -0.17101
    outer loop
      vertex 6.36074 0.150202 0.938724
      vertex 6.5 -0.605384 2.30944
      vertex 6.25968 -0.146159 2.26473
    endloop
  endfacet
  facet normal -0.798893 -0.498097 -0.337148
    outer loop
      vertex 3.99813 0.691464 10.0541
      vertex 0.145061 6.03028 11.2967
      vertex 3.55225 6.90184 1.9355
    endloop
  endfacet
  facet normal -0.798893 -0.498097 -0.337148
    outer loop
      vertex 0.145061 6.03028 11.2967
      vertex 3.99813 0.691464 10.0541
      vertex 2.63351 1.69898 11.7991
    endloop
  endfacet
  facet normal -0.340719 -0.0871558 0.936117
    outer loop
      vertex 3.55225 6.90184 1.9355
      vertex 0.257507 4.3637 0.5
      vertex 7.51754 0 2.73616
    endloop
  endfacet
  facet normal -0.340719 -0.0871558 0.936117
    outer loop
      vertex 0.257507 4.3637 0.5
      vertex 3.55225 6.90184 1.9355
      vertex -0.39175 6.90184 0.5
    endloop
  endfacet
  facet normal -0.798893 -0.498097 -0.337148
    outer loop
      vertex 7.51754 0 2.73616
      vertex 5.25267 1.11729 6.45225
      vertex 3.55225 6.90184 1.9355
    endloop
  endfacet
  facet normal -0.798893 -0.498097 -0.337148
    outer loop
      vertex 5.1188 -0.613597 9.32664
      vertex 5.25267 1.11729 6.45225
      vertex 7.51754 0 2.73616
    endloop
  endfacet
  facet normal -0.798893 -0.498098 -0.337148
    outer loop
      vertex 5.25267 1.11729 6.45225
      vertex 5.1188 -0.613597 9.32664
      vertex 5 -0.361548 9.23578
    endloop
  endfacet
  facet normal -0.798893 -0.498097 -0.337148
    outer loop
      vertex 5.08624 1.06053 6.93047
      vertex 3.55225 6.90184 1.9355
      vertex 5.25267 1.11729 6.45225
    endloop
  endfacet
  facet normal -0.798893 -0.498097 -0.337148
    outer loop
      vertex 5.08624 1.06053 6.93047
      vertex 3.99813 0.691464 10.0541
      vertex 3.55225 6.90184 1.9355
    endloop
  endfacet
  facet normal -0.798987 -0.497938 -0.337162
    outer loop
      vertex 3.99813 0.691464 10.0541
      vertex 5.08624 1.06053 6.93047
      vertex 4 0.690086 10.0517
    endloop
  endfacet
  facet normal 0.340719 0.0871558 -0.936117
    outer loop
      vertex -4 0.225841 9.24757
      vertex 0.145061 6.03028 11.2967
      vertex 2.63351 1.69898 11.7991
    endloop
  endfacet
  facet normal 0.340719 0.0871556 -0.936117
    outer loop
      vertex 0.145061 6.03028 11.2967
      vertex -4 0.225841 9.24757
      vertex -5.28033 2.64763 9.00705
    endloop
  endfacet
  facet normal -0.340718 -0.0871558 0.936117
    outer loop
      vertex 6.25968 -0.146159 2.26473
      vertex 6.53863 -0.610334 2.32304
      vertex 7.51754 0 2.73616
    endloop
  endfacet
  facet normal -0.340722 -0.0871581 0.936115
    outer loop
      vertex 6.53863 -0.610334 2.32304
      vertex 6.25968 -0.146159 2.26473
      vertex 6.5 -0.605384 2.30944
    endloop
  endfacet
  facet normal -0.340719 -0.0871554 0.936117
    outer loop
      vertex 7.51754 0 2.73616
      vertex 6.04571 0.26273 2.22492
      vertex 6.25968 -0.146159 2.26473
    endloop
  endfacet
  facet normal -0.340719 -0.0871558 0.936117
    outer loop
      vertex 0.257507 4.3637 0.5
      vertex 5.35631 -1.34749 1.82408
      vertex 6.04571 0.26273 2.22492
    endloop
  endfacet
  facet normal -0.340719 -0.0871557 0.936117
    outer loop
      vertex 5.35631 -1.34749 1.82408
      vertex 0.257507 4.3637 0.5
      vertex 2.21882 -3.30367 0.5
    endloop
  endfacet
  facet normal -0.340719 -0.0871557 0.936117
    outer loop
      vertex 0.257507 4.3637 0.5
      vertex 6.04571 0.26273 2.22492
      vertex 7.51754 0 2.73616
    endloop
  endfacet
  facet normal 0.828702 -0.498097 0.255248
    outer loop
      vertex -7.3555 2.25574 1.13966
      vertex -5.18429 5.54027 0.5
      vertex -7.32635 3.14768 2.78556
    endloop
  endfacet
  facet normal 0.828702 -0.498097 0.255248
    outer loop
      vertex -5.18429 5.54027 0.5
      vertex -7.3555 2.25574 1.13966
      vertex -7.36683 1.9091 0.5
    endloop
  endfacet
  facet normal 0.340719 0.0871557 -0.936117
    outer loop
      vertex -6.55477 5.05829 8.76763
      vertex 0.145061 6.03028 11.2967
      vertex -5.28033 2.64763 9.00705
    endloop
  endfacet
  facet normal 0.340719 0.0871558 -0.936117
    outer loop
      vertex 0.145061 6.03028 11.2967
      vertex -6.55477 5.05829 8.76763
      vertex -7.06864 6.03028 8.67109
    endloop
  endfacet
  facet normal 0.828702 -0.498097 0.255248
    outer loop
      vertex -7.32635 3.14768 2.78556
      vertex -4.4387 6.78074 0.5
      vertex -7.23093 6.06649 8.1716
    endloop
  endfacet
  facet normal 0.828702 -0.498098 0.255248
    outer loop
      vertex -4.4387 6.78074 0.5
      vertex -7.32635 3.14768 2.78556
      vertex -5.18429 5.54027 0.5
    endloop
  endfacet
  facet normal 0.0298091 -0.996195 -0.0818997
    outer loop
      vertex -7.23093 6.06649 8.1716
      vertex 0.145061 6.03028 11.2967
      vertex -7.06864 6.03028 8.67109
    endloop
  endfacet
  facet normal 0.0298091 -0.996195 -0.0818996
    outer loop
      vertex -3.52336 6.80813 0.5
      vertex -7.23093 6.06649 8.1716
      vertex -4.4387 6.78074 0.5
    endloop
  endfacet
  facet normal 0.029809 -0.996195 -0.0818997
    outer loop
      vertex -7.23093 6.06649 8.1716
      vertex -3.52336 6.80813 0.5
      vertex 0.145061 6.03028 11.2967
    endloop
  endfacet
  facet normal 0.0298091 -0.996195 -0.0818997
    outer loop
      vertex -0.39175 6.90184 0.5
      vertex 0.145061 6.03028 11.2967
      vertex -3.52336 6.80813 0.5
    endloop
  endfacet
  facet normal 0.029809 -0.996195 -0.0818997
    outer loop
      vertex 0.145061 6.03028 11.2967
      vertex -0.39175 6.90184 0.5
      vertex 3.55225 6.90184 1.9355
    endloop
  endfacet
  facet normal -0.340718 -0.0871559 0.936117
    outer loop
      vertex 7.16229 -0.690244 2.54259
      vertex 7.51754 0 2.73616
      vertex 6.53863 -0.610334 2.32304
    endloop
  endfacet
  facet normal -0.340719 -0.0871557 0.936117
    outer loop
      vertex 2.21882 -3.30367 0.5
      vertex 4 -4.51541 1.03548
      vertex 4.3565 -3.68274 1.24276
    endloop
  endfacet
  facet normal -0.340719 -0.0871557 0.936117
    outer loop
      vertex 2.21882 -3.30367 0.5
      vertex 4.3565 -3.68274 1.24276
      vertex 5.35631 -1.34749 1.82408
    endloop
  endfacet
  facet normal -0.340719 -0.0871557 0.936117
    outer loop
      vertex 4 -4.51541 1.03548
      vertex 2.21882 -3.30367 0.5
      vertex 2.60786 -4.82457 0.5
    endloop
  endfacet
  facet normal -0.828702 0.498097 -0.255248
    outer loop
      vertex 6.5 -1.14784 3.79984
      vertex 7.51754 0 2.73616
      vertex 7.16229 -0.690244 2.54259
    endloop
  endfacet
  facet normal -0.828702 0.498098 -0.255248
    outer loop
      vertex 7.51754 0 2.73616
      vertex 5.98593 -0.949 5.85688
      vertex 5.1188 -0.613597 9.32664
    endloop
  endfacet
  facet normal -0.828702 0.498097 -0.255248
    outer loop
      vertex 7.51754 0 2.73616
      vertex 6.5 -1.14784 3.79984
      vertex 5.98593 -0.949 5.85688
    endloop
  endfacet
  facet normal -0.0301536 -0.984808 0.17101
    outer loop
      vertex 7.48271 13.7251 16.9807
      vertex 7.85802 14.0316 18.8115
      vertex 7.18093 14.0316 18.6922
    endloop
  endfacet
  facet normal 0.837792 -0.492404 0.235889
    outer loop
      vertex 5.62537 11.473 18.876
      vertex 7.48271 13.7251 16.9807
      vertex 7.18093 14.0316 18.6922
    endloop
  endfacet
  facet normal 0.837792 -0.492404 0.235889
    outer loop
      vertex 5.62537 11.473 18.876
      vertex 7.33794 10.8672 11.5292
      vertex 7.48271 13.7251 16.9807
    endloop
  endfacet
  facet normal 0.837792 -0.492404 0.235889
    outer loop
      vertex 8.17745 8.88152 4.40243
      vertex 8.21503 10.5929 7.84129
      vertex 7.33794 10.8672 11.5292
    endloop
  endfacet
  facet normal 0.837792 -0.492404 0.235889
    outer loop
      vertex 8.21503 10.5929 7.84129
      vertex 8.17745 8.88152 4.40243
      vertex 9 10.3473 4.54077
    endloop
  endfacet
  facet normal 0.837791 -0.492404 0.235889
    outer loop
      vertex 8.17745 8.88152 4.40243
      vertex 7.33794 10.8672 11.5292
      vertex 5.62537 11.473 18.876
    endloop
  endfacet
  facet normal 0.171011 -0.173648 -0.969846
    outer loop
      vertex 5.62537 11.473 18.876
      vertex 6.64798 11.2119 19.103
      vertex 6.51161 10.9521 19.1255
    endloop
  endfacet
  facet normal 0.171011 -0.173648 -0.969846
    outer loop
      vertex 6.64798 11.2119 19.103
      vertex 5.62537 11.473 18.876
      vertex 6.78505 11.473 19.0805
    endloop
  endfacet
  facet normal 0.867945 0.492404 0.0648788
    outer loop
      vertex 8.41317 7.98375 8.06273
      vertex 8.17745 8.88152 4.40243
      vertex 5.62537 11.473 18.876
    endloop
  endfacet
  facet normal 0.0301538 0.984808 -0.17101
    outer loop
      vertex 9 7.56812 12.1765
      vertex 8.58492 7.32961 10.7297
      vertex 7.34731 8.58631 17.7486
    endloop
  endfacet
  facet normal 0.867945 0.492404 0.0648787
    outer loop
      vertex 6.42537 10.1692 18.0683
      vertex 5.62537 11.473 18.876
      vertex 6.21699 10.3909 19.174
    endloop
  endfacet
  facet normal 0.867945 0.492404 0.0648786
    outer loop
      vertex 8.58492 7.32961 10.7297
      vertex 7.21879 8.80698 17.7931
      vertex 7.34731 8.58631 17.7486
    endloop
  endfacet
  facet normal 0.867945 0.492404 0.0648788
    outer loop
      vertex 8.58492 7.32961 10.7297
      vertex 5.62537 11.473 18.876
      vertex 6.42537 10.1692 18.0683
    endloop
  endfacet
  facet normal 0.867945 0.492404 0.0648786
    outer loop
      vertex 7.21879 8.80698 17.7931
      vertex 8.58492 7.32961 10.7297
      vertex 6.42537 10.1692 18.0683
    endloop
  endfacet
  facet normal 0.867945 0.492404 0.0648787
    outer loop
      vertex 5.62537 11.473 18.876
      vertex 8.58492 7.32961 10.7297
      vertex 8.41317 7.98375 8.06273
    endloop
  endfacet
  facet normal 0.171011 -0.173648 -0.969846
    outer loop
      vertex 6.51161 10.9521 19.1255
      vertex 6.21699 10.3909 19.174
      vertex 5.62537 11.473 18.876
    endloop
  endfacet
  facet normal 0.171011 -0.173649 -0.969846
    outer loop
      vertex 7.27692 12.4099 18.9994
      vertex 6.78505 11.473 19.0805
      vertex 5.62537 11.473 18.876
    endloop
  endfacet
  facet normal 0.171011 -0.173648 -0.969846
    outer loop
      vertex 7.18093 14.0316 18.6922
      vertex 8 13.7873 18.8803
      vertex 7.27692 12.4099 18.9994
    endloop
  endfacet
  facet normal 0.171009 -0.173654 -0.969845
    outer loop
      vertex 8 13.7873 18.8803
      vertex 7.18093 14.0316 18.6922
      vertex 7.85802 14.0316 18.8115
    endloop
  endfacet
  facet normal 0.17101 -0.173648 -0.969846
    outer loop
      vertex 7.18093 14.0316 18.6922
      vertex 7.27692 12.4099 18.9994
      vertex 5.62537 11.473 18.876
    endloop
  endfacet
  facet normal -0.843493 -0.492404 -0.21461
    outer loop
      vertex 2.85769 16.8828 1.77719
      vertex 4.25937 14.8104 1.02292
      vertex 2.63617 14.9611 7.05698
    endloop
  endfacet
  facet normal -0.843493 -0.492404 -0.21461
    outer loop
      vertex -1.00688 18.5172 13.2163
      vertex -5.29292 21.4584 23.3136
      vertex -2.59523 20.0676 15.9018
    endloop
  endfacet
  facet normal -0.843493 -0.492404 -0.21461
    outer loop
      vertex 2.63617 14.9611 7.05698
      vertex -5.29292 21.4584 23.3136
      vertex -1.00688 18.5172 13.2163
    endloop
  endfacet
  facet normal -0.843493 -0.492404 -0.21461
    outer loop
      vertex 2.63617 14.9611 7.05698
      vertex 5.63815 12 2.05212
      vertex -5.29292 21.4584 23.3136
    endloop
  endfacet
  facet normal -0.843493 -0.492404 -0.21461
    outer loop
      vertex 5.63815 12 2.05212
      vertex 2.63617 14.9611 7.05698
      vertex 4.25937 14.8104 1.02292
    endloop
  endfacet
  facet normal -0.843493 -0.492404 -0.21461
    outer loop
      vertex 5.63815 12 2.05212
      vertex -2.78245 16.3412 25.1875
      vertex -5.29292 21.4584 23.3136
    endloop
  endfacet
  facet normal -0.336824 0.173648 0.925417
    outer loop
      vertex 5.63815 12 2.05212
      vertex 4.25937 14.8104 1.02292
      vertex 2.74937 13.8141 0.660283
    endloop
  endfacet
  facet normal -0.784102 0.492404 -0.377786
    outer loop
      vertex 5.63815 12 2.05212
      vertex 2.51047 6.88279 1.87395
      vertex -2.78245 16.3412 25.1875
    endloop
  endfacet
  facet normal 0.336824 -0.173648 -0.925417
    outer loop
      vertex -8 16.3332 23.29
      vertex -2.78245 16.3412 25.1875
      vertex -5.37667 12.0968 25.0398
    endloop
  endfacet
  facet normal 0.336824 -0.173648 -0.925417
    outer loop
      vertex -2.78245 16.3412 25.1875
      vertex -8 16.3332 23.29
      vertex -6.74737 18.8311 23.2772
    endloop
  endfacet
  facet normal 0.0593913 0.984808 -0.163176
    outer loop
      vertex -3.2026 6.99968 0.5
      vertex -7.63593 9.207 12.2081
      vertex -5.57089 10.6947 21.9385
    endloop
  endfacet
  facet normal 0.0593911 0.984808 -0.163176
    outer loop
      vertex -7.63593 9.207 12.2081
      vertex -3.2026 6.99968 0.5
      vertex -3.37452 7.01004 0.5
    endloop
  endfacet
  facet normal -0.336824 0.173648 0.925417
    outer loop
      vertex -0.462224 8.4388 0.5
      vertex 2.51047 6.88279 1.87395
      vertex 5.63815 12 2.05212
    endloop
  endfacet
  facet normal -0.336824 0.173648 0.925417
    outer loop
      vertex 2.51047 6.88279 1.87395
      vertex -0.462224 8.4388 0.5
      vertex -1.26442 6.88279 0.5
    endloop
  endfacet
  facet normal 0.336824 -0.173648 -0.925417
    outer loop
      vertex -6.74737 18.8311 23.2772
      vertex -5.29292 21.4584 23.3136
      vertex -2.78245 16.3412 25.1875
    endloop
  endfacet
  facet normal 0.336822 -0.173647 -0.925417
    outer loop
      vertex -5.29292 21.4584 23.3136
      vertex -6.74737 18.8311 23.2772
      vertex -5.42983 21.4584 23.2638
    endloop
  endfacet
  facet normal 0.843493 0.492404 0.21461
    outer loop
      vertex -7.63593 9.207 12.2081
      vertex -6.50727 9.70274 6.63467
      vertex -8 9.87559 12.105
    endloop
  endfacet
  facet normal 0.843493 0.492404 0.21461
    outer loop
      vertex -3.37452 7.01004 0.5
      vertex -6.50727 9.70274 6.63467
      vertex -7.63593 9.207 12.2081
    endloop
  endfacet
  facet normal 0.843493 0.492404 0.21461
    outer loop
      vertex -6.50727 9.70274 6.63467
      vertex -3.37452 7.01004 0.5
      vertex -4.83327 9.50889 0.5
    endloop
  endfacet
  facet normal -0.336824 0.173648 0.925417
    outer loop
      vertex 2.08196 13.3737 0.5
      vertex 5.63815 12 2.05212
      vertex 2.74937 13.8141 0.660283
    endloop
  endfacet
  facet normal -0.336824 0.173648 0.925417
    outer loop
      vertex 5.63815 12 2.05212
      vertex 2.08196 13.3737 0.5
      vertex -0.462224 8.4388 0.5
    endloop
  endfacet
  facet normal 0.0593913 0.984808 -0.163176
    outer loop
      vertex 2.51047 6.88279 1.87395
      vertex -5.57089 10.6947 21.9385
      vertex -5.28416 10.9013 23.2895
    endloop
  endfacet
  facet normal 0.0593911 0.984808 -0.163176
    outer loop
      vertex -3.2026 6.99968 0.5
      vertex 2.51047 6.88279 1.87395
      vertex -1.26442 6.88279 0.5
    endloop
  endfacet
  facet normal 0.0593912 0.984808 -0.163176
    outer loop
      vertex 2.51047 6.88279 1.87395
      vertex -3.2026 6.99968 0.5
      vertex -5.57089 10.6947 21.9385
    endloop
  endfacet
  facet normal -0.784102 0.492404 -0.377786
    outer loop
      vertex -2.78245 16.3412 25.1875
      vertex -5.28416 10.9013 23.2895
      vertex -5.37667 12.0968 25.0398
    endloop
  endfacet
  facet normal -0.784102 0.492404 -0.377786
    outer loop
      vertex -5.28416 10.9013 23.2895
      vertex -2.78245 16.3412 25.1875
      vertex 2.51047 6.88279 1.87395
    endloop
  endfacet
  facet normal -0.0593909 -0.984808 0.163176
    outer loop
      vertex -5.1113 21.175 21.6695
      vertex -5.29292 21.4584 23.3136
      vertex -5.42983 21.4584 23.2638
    endloop
  endfacet
  facet normal -0.0593886 -0.984808 0.163177
    outer loop
      vertex -2.59523 20.0676 15.9018
      vertex -5.1113 21.175 21.6695
      vertex -4.78672 20.8863 20.045
    endloop
  endfacet
  facet normal -0.0593923 -0.984808 0.163175
    outer loop
      vertex -2.59523 20.0676 15.9018
      vertex -4.78672 20.8863 20.045
      vertex -4 20.1865 16.1076
    endloop
  endfacet
  facet normal -0.0593909 -0.984808 0.163176
    outer loop
      vertex -5.1113 21.175 21.6695
      vertex -2.59523 20.0676 15.9018
      vertex -5.29292 21.4584 23.3136
    endloop
  endfacet
  facet normal 0 0 -1
    outer loop
      vertex 9.60582 0.248257 0.5
      vertex 10.9619 2.88825 0.5
      vertex 11 2.81801 0.5
    endloop
  endfacet
  facet normal 0 0 -1
    outer loop
      vertex 7.40084 4.37374 0.5
      vertex 10.9619 2.88825 0.5
      vertex 9.60582 0.248257 0.5
    endloop
  endfacet
  facet normal 0 0 -1
    outer loop
      vertex 6.4682 0.111819 0.5
      vertex 9.60582 0.248257 0.5
      vertex 9.5 0.0531994 0.5
    endloop
  endfacet
  facet normal 0 0 -1
    outer loop
      vertex 10.9619 2.88825 0.5
      vertex 7.40084 4.37374 0.5
      vertex 10.156 4.37374 0.5
    endloop
  endfacet
  facet normal -0 0 -1
    outer loop
      vertex 9.60582 0.248257 0.5
      vertex 6.4682 0.111819 0.5
      vertex 7.40084 4.37374 0.5
    endloop
  endfacet
  facet normal 0 0 -1
    outer loop
      vertex 6.4682 0.111819 0.5
      vertex 9.5 0.0531994 0.5
      vertex 6.5 0.0531994 0.5
    endloop
  endfacet
  facet normal -0 0 -1
    outer loop
      vertex 7.40084 4.37374 0.5
      vertex 6.4682 0.111819 0.5
      vertex 7.29435 4.58673 0.5
    endloop
  endfacet
  facet normal 0 0 -1
    outer loop
      vertex 0.257507 4.3637 0.5
      vertex 7.29435 4.58673 0.5
      vertex 6.4682 0.111819 0.5
    endloop
  endfacet
  facet normal 0 0 -1
    outer loop
      vertex 2.21882 -3.30367 0.5
      vertex 6.4682 0.111819 0.5
      vertex 4.26121 -4.30216 0.5
    endloop
  endfacet
  facet normal 0 0 -1
    outer loop
      vertex 6.23081 6.71381 0.5
      vertex 8.94995 11.9103 0.5
      vertex 9 11.818 0.5
    endloop
  endfacet
  facet normal 0 0 -1
    outer loop
      vertex 2.08196 13.3737 0.5
      vertex 8.94995 11.9103 0.5
      vertex 6.23081 6.71381 0.5
    endloop
  endfacet
  facet normal 0 0 -1
    outer loop
      vertex 2.60786 -4.82457 0.5
      vertex 4.26121 -4.30216 0.5
      vertex 4 -4.82457 0.5
    endloop
  endfacet
  facet normal -0 0 -1
    outer loop
      vertex 4.26121 -4.30216 0.5
      vertex 2.60786 -4.82457 0.5
      vertex 2.21882 -3.30367 0.5
    endloop
  endfacet
  facet normal 0 0 -1
    outer loop
      vertex 0.257507 4.3637 0.5
      vertex 6.4682 0.111819 0.5
      vertex 2.21882 -3.30367 0.5
    endloop
  endfacet
  facet normal -0 0 -1
    outer loop
      vertex 7.29435 4.58673 0.5
      vertex 0.257507 4.3637 0.5
      vertex 6.23081 6.71381 0.5
    endloop
  endfacet
  facet normal 0 0 -1
    outer loop
      vertex -0.39175 6.90184 0.5
      vertex 6.23081 6.71381 0.5
      vertex 0.257507 4.3637 0.5
    endloop
  endfacet
  facet normal 0 0 -1
    outer loop
      vertex -0.462224 8.4388 0.5
      vertex 6.23081 6.71381 0.5
      vertex -0.39175 6.90184 0.5
    endloop
  endfacet
  facet normal 0 -0 -1
    outer loop
      vertex 2.08196 13.3737 0.5
      vertex 6.23081 6.71381 0.5
      vertex -0.462224 8.4388 0.5
    endloop
  endfacet
  facet normal 0 0 -1
    outer loop
      vertex 8.94995 11.9103 0.5
      vertex 2.08196 13.3737 0.5
      vertex 8.15597 13.3737 0.5
    endloop
  endfacet
  facet normal -0 0 -1
    outer loop
      vertex -0.39175 6.90184 0.5
      vertex -1.26442 6.88279 0.5
      vertex -0.462224 8.4388 0.5
    endloop
  endfacet
  facet normal 0 0 -1
    outer loop
      vertex -3.52336 6.80813 0.5
      vertex -3.2026 6.99968 0.5
      vertex -1.26442 6.88279 0.5
    endloop
  endfacet
  facet normal 0 0 -1
    outer loop
      vertex -3.52336 6.80813 0.5
      vertex -1.26442 6.88279 0.5
      vertex -0.39175 6.90184 0.5
    endloop
  endfacet
  facet normal -0 0 -1
    outer loop
      vertex -3.2026 6.99968 0.5
      vertex -3.52336 6.80813 0.5
      vertex -3.37452 7.01004 0.5
    endloop
  endfacet
  facet normal 0 0 -1
    outer loop
      vertex -4.4387 6.78074 0.5
      vertex -3.37452 7.01004 0.5
      vertex -3.52336 6.80813 0.5
    endloop
  endfacet
  facet normal 0 0 -1
    outer loop
      vertex -4.4387 6.78074 0.5
      vertex -4.83327 9.50889 0.5
      vertex -3.37452 7.01004 0.5
    endloop
  endfacet
  facet normal 0 0 -1
    outer loop
      vertex -5.18429 5.54027 0.5
      vertex -4.83327 9.50889 0.5
      vertex -4.4387 6.78074 0.5
    endloop
  endfacet
  facet normal -0 0 -1
    outer loop
      vertex -5.18429 5.54027 0.5
      vertex -7.29435 4.58673 0.5
      vertex -4.83327 9.50889 0.5
    endloop
  endfacet
  facet normal 0 0 -1
    outer loop
      vertex -7.42265 2.02073 0.5
      vertex -5.18429 5.54027 0.5
      vertex -7.36683 1.9091 0.5
    endloop
  endfacet
  facet normal 0 0 -1
    outer loop
      vertex -5.18429 5.54027 0.5
      vertex -7.42265 2.02073 0.5
      vertex -7.29435 4.58673 0.5
    endloop
  endfacet
  facet normal 0 0 -1
    outer loop
      vertex -7.29435 4.58673 0.5
      vertex -7.42265 2.02073 0.5
      vertex -8 3.17543 0.5
    endloop
  endfacet
endsolid OpenSCAD_Model
