solid OpenSCAD_Model
  facet normal 0.654654 0.377964 0.654654
    outer loop
      vertex 30 8.66025 0
      vertex 25 0 10
      vertex 35 0 0
    endloop
  endfacet
  facet normal 0 -0.755929 0.654654
    outer loop
      vertex 25 0 10
      vertex 20 -8.66025 0
      vertex 30 -8.66025 0
    endloop
  endfacet
  facet normal -0.654654 0.377964 0.654654
    outer loop
      vertex 20 8.66025 0
      vertex 15 0 0
      vertex 25 0 10
    endloop
  endfacet
  facet normal 0 0.755929 0.654654
    outer loop
      vertex 30 8.66025 0
      vertex 20 8.66025 0
      vertex 25 0 10
    endloop
  endfacet
  facet normal 0.654654 -0.377964 0.654654
    outer loop
      vertex 35 0 0
      vertex 25 0 10
      vertex 30 -8.66025 0
    endloop
  endfacet
  facet normal 0 0 -1
    outer loop
      vertex 30 -8.66025 0
      vertex 30 8.66025 0
      vertex 35 0 0
    endloop
  endfacet
  facet normal 0 0 -1
    outer loop
      vertex 20 -8.66025 0
      vertex 30 8.66025 0
      vertex 30 -8.66025 0
    endloop
  endfacet
  facet normal 0 0 -1
    outer loop
      vertex 20 -8.66025 0
      vertex 20 8.66025 0
      vertex 30 8.66025 0
    endloop
  endfacet
  facet normal 0 -0 -1
    outer loop
      vertex 20 8.66025 0
      vertex 20 -8.66025 0
      vertex 15 0 0
    endloop
  endfacet
  facet normal -0.654654 -0.377964 0.654654
    outer loop
      vertex 25 0 10
      vertex 15 0 0
      vertex 20 -8.66025 0
    endloop
  endfacet
  facet normal 0 0.755929 0.654654
    outer loop
      vertex 17.5 30.3109 0
      vertex 7.5 30.3109 0
      vertex 12.5 21.6506 10
    endloop
  endfacet
  facet normal 0 0 -1
    outer loop
      vertex 17.5 12.9904 0
      vertex 17.5 30.3109 0
      vertex 22.5 21.6506 0
    endloop
  endfacet
  facet normal 0 0 -1
    outer loop
      vertex 7.5 12.9904 0
      vertex 17.5 30.3109 0
      vertex 17.5 12.9904 0
    endloop
  endfacet
  facet normal 0 0 -1
    outer loop
      vertex 7.5 12.9904 0
      vertex 7.5 30.3109 0
      vertex 17.5 30.3109 0
    endloop
  endfacet
  facet normal 0 -0 -1
    outer loop
      vertex 7.5 30.3109 0
      vertex 7.5 12.9904 0
      vertex 2.5 21.6506 0
    endloop
  endfacet
  facet normal 0 -0.755929 0.654654
    outer loop
      vertex 12.5 21.6506 10
      vertex 7.5 12.9904 0
      vertex 17.5 12.9904 0
    endloop
  endfacet
  facet normal -0.654654 -0.377964 0.654654
    outer loop
      vertex 12.5 21.6506 10
      vertex 2.5 21.6506 0
      vertex 7.5 12.9904 0
    endloop
  endfacet
  facet normal -0.654654 0.377964 0.654654
    outer loop
      vertex 7.5 30.3109 0
      vertex 2.5 21.6506 0
      vertex 12.5 21.6506 10
    endloop
  endfacet
  facet normal 0.654654 0.377964 0.654654
    outer loop
      vertex 17.5 30.3109 0
      vertex 12.5 21.6506 10
      vertex 22.5 21.6506 0
    endloop
  endfacet
  facet normal 0.654654 -0.377964 0.654654
    outer loop
      vertex 22.5 21.6506 0
      vertex 12.5 21.6506 10
      vertex 17.5 12.9904 0
    endloop
  endfacet
  facet normal -0.654654 0.377964 0.654654
    outer loop
      vertex -17.5 30.3109 0
      vertex -22.5 21.6506 0
      vertex -12.5 21.6506 10
    endloop
  endfacet
  facet normal 0 0 -1
    outer loop
      vertex -7.5 12.9904 0
      vertex -7.5 30.3109 0
      vertex -2.5 21.6506 0
    endloop
  endfacet
  facet normal 0 0 -1
    outer loop
      vertex -17.5 12.9904 0
      vertex -7.5 30.3109 0
      vertex -7.5 12.9904 0
    endloop
  endfacet
  facet normal 0 0 -1
    outer loop
      vertex -17.5 12.9904 0
      vertex -17.5 30.3109 0
      vertex -7.5 30.3109 0
    endloop
  endfacet
  facet normal 0 -0 -1
    outer loop
      vertex -17.5 30.3109 0
      vertex -17.5 12.9904 0
      vertex -22.5 21.6506 0
    endloop
  endfacet
  facet normal 0.654654 -0.377964 0.654654
    outer loop
      vertex -2.5 21.6506 0
      vertex -12.5 21.6506 10
      vertex -7.5 12.9904 0
    endloop
  endfacet
  facet normal 0 -0.755929 0.654654
    outer loop
      vertex -12.5 21.6506 10
      vertex -17.5 12.9904 0
      vertex -7.5 12.9904 0
    endloop
  endfacet
  facet normal -0.654654 -0.377964 0.654654
    outer loop
      vertex -12.5 21.6506 10
      vertex -22.5 21.6506 0
      vertex -17.5 12.9904 0
    endloop
  endfacet
  facet normal 0.654654 0.377964 0.654654
    outer loop
      vertex -7.5 30.3109 0
      vertex -12.5 21.6506 10
      vertex -2.5 21.6506 0
    endloop
  endfacet
  facet normal 0 0.755929 0.654654
    outer loop
      vertex -7.5 30.3109 0
      vertex -17.5 30.3109 0
      vertex -12.5 21.6506 10
    endloop
  endfacet
  facet normal -0.654654 -0.377964 0.654654
    outer loop
      vertex -25 0 10
      vertex -35 0 0
      vertex -30 -8.66025 0
    endloop
  endfacet
  facet normal 0 0.755929 0.654654
    outer loop
      vertex -20 8.66025 0
      vertex -30 8.66025 0
      vertex -25 0 10
    endloop
  endfacet
  facet normal 0 0 -1
    outer loop
      vertex -20 -8.66025 0
      vertex -20 8.66025 0
      vertex -15 0 0
    endloop
  endfacet
  facet normal 0 0 -1
    outer loop
      vertex -30 -8.66025 0
      vertex -20 8.66025 0
      vertex -20 -8.66025 0
    endloop
  endfacet
  facet normal 0 0 -1
    outer loop
      vertex -30 -8.66025 0
      vertex -30 8.66025 0
      vertex -20 8.66025 0
    endloop
  endfacet
  facet normal 0 -0 -1
    outer loop
      vertex -30 8.66025 0
      vertex -30 -8.66025 0
      vertex -35 0 0
    endloop
  endfacet
  facet normal 0.654654 -0.377964 0.654654
    outer loop
      vertex -15 0 0
      vertex -25 0 10
      vertex -20 -8.66025 0
    endloop
  endfacet
  facet normal 0 -0.755929 0.654654
    outer loop
      vertex -25 0 10
      vertex -30 -8.66025 0
      vertex -20 -8.66025 0
    endloop
  endfacet
  facet normal -0.654654 0.377964 0.654654
    outer loop
      vertex -30 8.66025 0
      vertex -35 0 0
      vertex -25 0 10
    endloop
  endfacet
  facet normal 0.654654 0.377964 0.654654
    outer loop
      vertex -20 8.66025 0
      vertex -25 0 10
      vertex -15 0 0
    endloop
  endfacet
  facet normal 0 -0.755929 0.654654
    outer loop
      vertex -12.5 -21.6506 10
      vertex -17.5 -30.3109 0
      vertex -7.5 -30.3109 0
    endloop
  endfacet
  facet normal 0 0.755929 0.654654
    outer loop
      vertex -7.5 -12.9904 0
      vertex -17.5 -12.9904 0
      vertex -12.5 -21.6506 10
    endloop
  endfacet
  facet normal 0.654654 0.377964 0.654654
    outer loop
      vertex -7.5 -12.9904 0
      vertex -12.5 -21.6506 10
      vertex -2.5 -21.6506 0
    endloop
  endfacet
  facet normal 0.654654 -0.377964 0.654654
    outer loop
      vertex -2.5 -21.6506 0
      vertex -12.5 -21.6506 10
      vertex -7.5 -30.3109 0
    endloop
  endfacet
  facet normal 0 0 -1
    outer loop
      vertex -7.5 -30.3109 0
      vertex -7.5 -12.9904 0
      vertex -2.5 -21.6506 0
    endloop
  endfacet
  facet normal 0 0 -1
    outer loop
      vertex -17.5 -30.3109 0
      vertex -7.5 -12.9904 0
      vertex -7.5 -30.3109 0
    endloop
  endfacet
  facet normal 0 0 -1
    outer loop
      vertex -17.5 -30.3109 0
      vertex -17.5 -12.9904 0
      vertex -7.5 -12.9904 0
    endloop
  endfacet
  facet normal 0 -0 -1
    outer loop
      vertex -17.5 -12.9904 0
      vertex -17.5 -30.3109 0
      vertex -22.5 -21.6506 0
    endloop
  endfacet
  facet normal -0.654654 -0.377964 0.654654
    outer loop
      vertex -12.5 -21.6506 10
      vertex -22.5 -21.6506 0
      vertex -17.5 -30.3109 0
    endloop
  endfacet
  facet normal -0.654654 0.377964 0.654654
    outer loop
      vertex -17.5 -12.9904 0
      vertex -22.5 -21.6506 0
      vertex -12.5 -21.6506 10
    endloop
  endfacet
  facet normal 0.654654 -0.377964 0.654654
    outer loop
      vertex 22.5 -21.6506 0
      vertex 12.5 -21.6506 10
      vertex 17.5 -30.3109 0
    endloop
  endfacet
  facet normal -0.654654 0.377964 0.654654
    outer loop
      vertex 7.5 -12.9904 0
      vertex 2.5 -21.6506 0
      vertex 12.5 -21.6506 10
    endloop
  endfacet
  facet normal 0 0.755929 0.654654
    outer loop
      vertex 17.5 -12.9904 0
      vertex 7.5 -12.9904 0
      vertex 12.5 -21.6506 10
    endloop
  endfacet
  facet normal 0.654654 0.377964 0.654654
    outer loop
      vertex 17.5 -12.9904 0
      vertex 12.5 -21.6506 10
      vertex 22.5 -21.6506 0
    endloop
  endfacet
  facet normal -0.654654 -0.377964 0.654654
    outer loop
      vertex 12.5 -21.6506 10
      vertex 2.5 -21.6506 0
      vertex 7.5 -30.3109 0
    endloop
  endfacet
  facet normal 0 0 -1
    outer loop
      vertex 17.5 -30.3109 0
      vertex 17.5 -12.9904 0
      vertex 22.5 -21.6506 0
    endloop
  endfacet
  facet normal 0 0 -1
    outer loop
      vertex 7.5 -30.3109 0
      vertex 17.5 -12.9904 0
      vertex 17.5 -30.3109 0
    endloop
  endfacet
  facet normal 0 0 -1
    outer loop
      vertex 7.5 -30.3109 0
      vertex 7.5 -12.9904 0
      vertex 17.5 -12.9904 0
    endloop
  endfacet
  facet normal 0 -0 -1
    outer loop
      vertex 7.5 -12.9904 0
      vertex 7.5 -30.3109 0
      vertex 2.5 -21.6506 0
    endloop
  endfacet
  facet normal 0 -0.755929 0.654654
    outer loop
      vertex 12.5 -21.6506 10
      vertex 7.5 -30.3109 0
      vertex 17.5 -30.3109 0
    endloop
  endfacet
  facet normal 0.654654 0.377964 0.654654
    outer loop
      vertex 5 8.66025 0
      vertex 0 0 10
      vertex 10 0 0
    endloop
  endfacet
  facet normal -0.654654 -0.377964 0.654654
    outer loop
      vertex 0 0 10
      vertex -10 0 0
      vertex -5 -8.66025 0
    endloop
  endfacet
  facet normal -0.654654 0.377965 0.654654
    outer loop
      vertex -5 8.66025 0
      vertex -10 0 0
      vertex 0 0 10
    endloop
  endfacet
  facet normal 0 0.755929 0.654654
    outer loop
      vertex 5 8.66025 0
      vertex -5 8.66025 0
      vertex 0 0 10
    endloop
  endfacet
  facet normal 0 0 -1
    outer loop
      vertex 5 -8.66025 0
      vertex 5 8.66025 0
      vertex 10 0 0
    endloop
  endfacet
  facet normal 0 0 -1
    outer loop
      vertex 5 -8.66025 0
      vertex -5 8.66025 0
      vertex 5 8.66025 0
    endloop
  endfacet
  facet normal 0 0 -1
    outer loop
      vertex -5 -8.66025 0
      vertex -5 8.66025 0
      vertex 5 -8.66025 0
    endloop
  endfacet
  facet normal 0 0 -1
    outer loop
      vertex -5 8.66025 0
      vertex -5 -8.66025 0
      vertex -10 0 0
    endloop
  endfacet
  facet normal 0 -0.755929 0.654654
    outer loop
      vertex 0 0 10
      vertex -5 -8.66025 0
      vertex 5 -8.66025 0
    endloop
  endfacet
  facet normal 0.654654 -0.377964 0.654654
    outer loop
      vertex 10 0 0
      vertex 0 0 10
      vertex 5 -8.66025 0
    endloop
  endfacet
endsolid OpenSCAD_Model
