<?xml version="1.0" encoding="UTF-8" standalone="no"?>
<svg
   xmlns:dc="http://purl.org/dc/elements/1.1/"
   xmlns:cc="http://web.resource.org/cc/"
   xmlns:rdf="http://www.w3.org/1999/02/22-rdf-syntax-ns#"
   xmlns:svg="http://www.w3.org/2000/svg"
   xmlns="http://www.w3.org/2000/svg"
   xmlns:sodipodi="http://inkscape.sourceforge.net/DTD/sodipodi-0.dtd"
   xmlns:inkscape="http://www.inkscape.org/namespaces/inkscape"
   version="1.0"
   width="451pt"
   height="439pt"
   viewBox="0 0 451 439"
   preserveAspectRatio="xMidYMid meet"
   id="svg1404"
   sodipodi:version="0.32"
   inkscape:version="0.43"
   sodipodi:docname="Sealofrassilon.svg"
   sodipodi:docbase="/home/mark">
  <defs
     id="defs1423" />
  <sodipodi:namedview
     inkscape:cy="373.42024"
     inkscape:cx="395.5976"
     inkscape:zoom="0.43415836"
     inkscape:window-height="945"
     inkscape:window-width="1280"
     inkscape:pageshadow="2"
     inkscape:pageopacity="0.0"
     borderopacity="1.0"
     bordercolor="#666666"
     pagecolor="#ffffff"
     id="base"
     inkscape:window-x="0"
     inkscape:window-y="0"
     inkscape:current-layer="svg1404" />
  <metadata
     id="metadata1406">
Created by potrace 1.7, written by Peter Selinger 2001-2005
<rdf:RDF>
  <cc:Work
     rdf:about="">
    <dc:format>image/svg+xml</dc:format>
    <dc:type
       rdf:resource="http://purl.org/dc/dcmitype/StillImage" />
  </cc:Work>
</rdf:RDF>
</metadata>
  <path
     style="fill:#000000;stroke:none"
     id="path1414"
     d="M 239.03384,24.853083 C 239.03384,26.169228 239.91127,26.5202 243.77196,27.046658 C 249.29977,27.660859 264.21608,32.398981 272.37618,36.084187 C 279.04465,39.155192 289.57381,47.315291 295.2771,53.72053 C 301.33137,60.652227 304.6656,66.794237 308.5263,78.200827 C 311.5973,87.413842 312.03602,89.782903 312.47473,99.610119 C 313.4399,121.89684 309.84244,134.26861 296.68099,153.92304 C 291.5919,161.38119 284.46281,168.66382 241.73197,212.44757 L 231.20281,223.23996 L 236.73061,228.50454 C 239.80162,231.31232 242.6094,233.68138 243.04811,233.68138 C 243.39908,233.68138 245.15394,232.01426 246.99654,229.90843 C 248.75141,227.89034 256.03407,220.2567 263.05351,213.06177 C 307.53922,167.43542 315.37025,157.87147 322.30195,139.00673 C 326.60135,127.16142 327.12781,123.56396 327.21555,105.66439 C 327.21555,90.309361 327.04007,87.852557 325.19747,81.973776 C 324.05681,78.376313 322.82841,74.603364 322.47743,73.638191 C 320.19612,68.198125 319.7574,66.794237 319.7574,64.863891 C 319.7574,62.143858 321.24903,62.056115 326.16264,64.512919 C 330.46205,66.794237 348.62485,81.184089 353.18748,86.097697 C 364.41859,98.118488 380.03684,120.14198 386.61757,133.21569 C 391.26794,142.51645 398.35322,154.97591 398.96742,158.74886 C 399.40614,161.38115 399.23065,161.73212 397.38805,161.73212 C 396.33513,161.73212 394.58027,160.94243 393.6151,160.065 C 390.45635,157.16948 376.61486,153.2211 370.38511,151.81721 C 359.41724,149.27266 349.23905,150.58881 338.79763,155.76564 C 329.49687,160.50376 325.96524,163.83795 321.84132,173.22645 C 320.26195,176.9994 319.82324,179.54395 319.82324,185.42273 C 319.82324,195.68866 322.1923,201.91841 328.77302,208.58688 C 334.38857,214.29018 337.72281,216.22052 348.69068,219.99347 C 358.43016,223.41545 359.92179,225.17031 360.44824,233.41815 C 361.41342,247.98349 354.30623,260.09202 341.40801,265.9708 C 337.54732,267.72566 335.09052,268.16438 329.91368,268.16438 C 318.77032,268.16438 318.94581,268.33986 282.18149,233.33041 C 274.02139,225.52128 266.91421,219.11604 266.38775,218.94056 C 265.24709,218.67733 253.57727,230.34715 253.57727,231.75103 C 253.57727,232.27749 258.40314,237.10336 264.36966,242.54342 C 296.4836,272.20056 302.62561,278.43031 306.22307,285.36201 C 311.57539,295.62794 315.78706,308.26293 316.66449,316.94949 C 317.45417,324.14441 316.75223,338.09555 315.43608,343.36013 C 310.96119,360.73324 300.34429,379.59799 289.46416,389.42521 C 279.5492,398.37499 262.0006,406.88606 249.62884,408.72866 C 245.41717,409.43061 243.48683,411.36095 245.76814,412.76484 C 246.47009,413.11581 247.78623,413.2913 248.75141,413.11581 C 258.66636,411.09773 268.84455,408.55318 276.82916,406.00863 C 288.41124,402.41117 307.01276,395.30399 308.85536,393.72461 C 309.64505,393.11041 312.54057,391.53104 315.43608,390.21489 C 323.33296,386.52969 336.23118,378.28184 345.18096,370.99917 C 355.79787,362.40036 357.20175,360.99647 365.88831,351.16926 C 376.94393,338.70975 377.2949,338.35878 383.96337,328.88254 C 401.95068,303.17384 414.49793,273.60444 420.02574,243.68408 C 421.34189,236.5769 421.60512,230.61038 421.51737,211.30692 C 421.51737,196.12738 421.07866,185.42273 420.37671,181.47429 C 414.14696,147.16678 397.58544,114.96515 377.49229,90.133875 C 371.1748,82.324748 354.76686,66.180036 346.51902,59.599311 C 339.49957,53.983759 325.72392,45.911403 316.6864,42.226197 C 292.99579,32.486724 258.16181,23.185966 245.17585,23.185966 C 239.73578,23.185966 239.03384,23.361452 239.03384,24.853083 z M 370.27546,213.23726 C 373.43421,217.27344 378.78653,229.20649 381.15559,237.45433 C 385.01628,250.79127 385.89371,271.41087 383.26142,285.44975 C 380.62913,299.48863 371.59161,319.49403 362.46633,331.51482 C 353.77978,342.92142 340.88155,354.41575 331.5808,359.24161 C 325.70202,362.22487 325.2633,361.2597 328.15882,352.22217 C 330.3524,345.20273 332.54597,329.40899 332.54597,320.28372 C 332.54597,311.15845 329.82594,298.96217 326.31622,291.94273 C 322.71875,284.83555 323.24521,284.1336 332.37048,283.43166 C 340.17961,282.9052 343.86482,281.50131 352.02492,276.06125 C 365.27411,267.37469 372.90775,253.33581 372.90775,237.89304 C 372.90775,232.10201 372.38129,229.73295 369.39803,221.74833 C 367.46768,216.65924 366.15154,212.0966 366.41477,211.65789 C 367.20445,210.34174 368.34511,210.78046 370.27546,213.23726 z "
     sodipodi:nodetypes="ccccccccccsccccccsccccsccccsccccsccsccccccccccccccccccccscccscccscccscsc" />
  <path
     style="fill:#000000;stroke:none"
     id="path1416"
     d="M 200.93147,22.834951 C 183.0319,25.993699 155.4806,35.294457 137.31779,44.1565 C 105.11611,59.95024 76.424153,85.658939 59.66524,113.47347 C 47.995421,132.86467 38.870149,155.23914 35.535915,172.7 C 34.833971,176.56069 33.781055,181.64978 33.34234,184.10658 C 31.324251,194.19703 30.622307,206.83202 31.148765,224.02965 C 32.113938,255.00293 36.939803,276.23674 49.223823,302.82286 C 50.627711,305.89387 51.76837,308.52616 51.76837,308.78939 C 51.76837,309.75456 60.981385,324.75861 65.456278,331.16385 C 71.247316,339.4117 87.479771,358.10095 93.972753,363.89199 C 99.14959,368.63011 111.6091,377.93087 119.50597,383.10771 C 127.57832,388.37229 149.7773,398.90145 160.21872,402.32343 C 174.2576,407.06155 195.14043,412.15064 204.2657,413.20356 C 208.82834,413.73002 209.70577,413.55453 209.70577,412.41387 C 209.70577,410.92224 209.26705,410.74675 200.5805,408.72866 C 193.38557,407.14929 179.25895,400.48082 173.6434,396.09367 C 159.86775,385.21354 146.79404,360.90873 143.81078,340.55235 C 142.40689,330.81288 143.28432,315.98431 145.91661,305.89387 C 149.51407,292.2937 155.83157,282.37874 171.97628,264.83015 C 181.01381,255.00293 209.79351,225.87225 217.95361,218.23861 L 224.09562,212.53532 L 217.95361,206.39331 C 214.61938,203.05907 211.46063,200.42678 210.93417,200.51453 C 210.40771,200.69001 208.1264,202.97133 205.75734,205.60362 C 203.47602,208.23591 193.0346,219.11604 182.59318,229.73295 C 149.33859,263.60174 141.26623,273.25347 134.42228,286.7659 C 130.64933,294.31179 129.1577,300.01509 127.57832,313.00105 C 125.47249,329.93545 127.13961,346.69436 132.40419,361.78616 C 135.82616,371.52563 135.29971,372.31532 127.57832,368.27914 C 120.20791,364.41845 99.851534,347.83502 94.586954,341.42978 C 92.919837,339.4117 89.761089,335.90197 87.655257,333.79614 C 85.549425,331.69031 83.180364,329.14576 82.47842,328.00511 C 69.404713,308.87713 63.350446,297.73377 58.436838,283.95812 C 56.243263,277.64062 56.15552,274.92059 58.349095,274.92059 C 58.963296,274.92059 61.683329,276.23674 64.491105,277.90385 C 76.33641,285.09878 89.585603,286.59041 105.46709,282.37874 C 120.3834,278.51805 130.91256,270.97215 136.17714,260.17977 C 138.80943,254.82744 139.07265,253.59904 139.07265,246.40411 C 138.98491,239.47242 138.72168,237.89304 136.44037,233.24266 C 131.26353,222.88899 122.226,216.48375 108.27486,213.41275 C 96.956015,210.95594 93.88501,207.27074 93.88501,196.12738 C 93.88501,176.9994 108.36261,163.92569 127.84155,165.59281 C 138.63394,166.47024 138.28297,166.20701 171.88854,198.49644 C 181.1893,207.44622 189.26165,214.99212 189.70037,215.16761 C 190.5778,215.43084 192.33266,213.67598 198.91338,205.86685 L 201.98439,202.18164 L 188.03325,188.66922 C 180.39961,181.21107 171.80079,173.13871 168.90527,170.76965 C 159.34129,162.87278 152.32185,154.44945 147.9347,145.76289 C 141.88043,133.65436 140.3888,127.68784 139.7746,111.63087 C 139.33588,99.171361 139.42363,97.153272 141.26623,89.695117 C 144.07401,78.464013 146.53081,72.322003 152.32185,62.933502 C 161.44712,47.753963 174.69631,37.049317 193.38557,29.942134 C 195.84238,28.976961 198.82564,28.011788 200.05404,27.660816 C 203.38827,26.958872 206.10831,24.85304 205.58185,23.449152 C 205.14313,22.22075 204.79216,22.133007 200.93147,22.834951 z M 129.85964,70.830372 C 129.85964,71.532316 129.06995,73.901377 128.19252,76.007209 C 121.43631,91.713206 121.08534,121.80906 127.40284,139.97186 C 129.7719,146.81581 129.33318,147.69324 123.36666,147.69324 C 113.18847,147.69324 101.34316,153.22105 92.305636,162.34632 C 82.741649,171.91031 78.442242,184.98401 79.933873,199.6371 C 80.72356,207.44622 84.057794,217.01021 87.128799,220.2567 C 89.322374,222.7135 88.62043,223.85416 85.98814,222.01156 C 80.899046,218.50184 70.457629,199.98807 68.000825,190.24859 C 63.701418,173.3142 63.789161,152.5191 68.176311,138.48022 C 75.108008,116.1935 95.990842,91.099005 122.75246,72.848461 C 127.66607,69.426484 129.85964,68.812283 129.85964,70.830372 z " />
  <path
     style="fill:#000000;stroke:none"
     id="path1418"
     d="M 216.98844,38.01449 C 203.30053,39.76935 188.20873,46.78879 178.29378,56.001805 C 167.41364,66.09225 160.48195,77.323354 157.41094,89.78286 C 154.95414,99.43459 155.12962,118.65031 157.67417,127.07363 C 160.74518,137.33957 162.14906,140.0596 169.1685,149.00939 C 171.80079,152.43136 231.81701,212.62306 232.51895,212.62306 C 232.86992,212.62306 235.6777,209.81528 238.92419,206.48105 L 244.80297,200.33904 L 233.04541,188.66922 C 226.64017,182.35172 212.77678,168.57607 202.24761,158.2224 C 191.71846,147.86873 181.62801,137.16408 179.78541,134.44405 C 174.52083,126.63492 173.29243,121.37034 173.29243,105.5766 C 173.29243,92.766122 173.46791,91.625463 175.57374,86.536369 C 182.32995,71.005858 194.08752,60.388955 211.1974,54.422431 C 218.48007,51.965627 219.3575,51.877884 229.44795,52.316599 C 241.29325,52.843057 248.40043,54.773403 257.96442,60.125726 C 264.80837,63.898675 273.49493,72.760718 276.74142,78.990471 C 280.95309,87.326056 279.02274,88.642201 271.74007,82.412448 C 263.40449,75.393008 252.6121,70.654886 239.09967,68.110339 C 228.48277,66.179993 221.72656,66.881937 212.95226,71.093601 C 204.35345,75.305265 200.49276,78.464013 195.93012,85.220224 C 189.52488,94.784211 187.77002,102.50559 189.43714,113.38573 C 192.15717,130.58335 205.40636,143.1306 221.90205,144.00803 C 234.01058,144.70998 242.08294,140.76154 246.99654,131.81176 C 249.27786,127.68784 249.54109,126.10846 249.62884,119.96645 C 249.62884,113.21024 249.45335,112.68378 246.2946,107.94566 C 242.6094,102.33011 238.30999,99.171361 232.51895,97.591987 C 224.70982,95.573898 218.1291,98.908132 218.1291,105.05014 C 218.1291,109.61278 220.41042,112.24507 225.93823,113.91218 C 232.51895,116.01802 234.36155,119.52774 230.76409,123.1252 C 228.39503,125.49426 221.98979,125.49426 217.16393,123.1252 C 211.98709,120.58065 208.1264,113.7367 208.03865,106.54177 C 207.86317,97.855216 212.95226,90.046089 219.9717,88.115743 C 233.57187,84.342794 251.47144,91.713206 260.24574,104.69917 C 262.6148,108.20889 266.38775,118.56256 267.26518,123.82714 C 267.96712,128.03881 265.15935,138.217 261.91285,143.21835 C 260.85994,144.97321 253.40178,153.04556 245.32943,161.29341 C 237.34482,169.4535 230.76409,176.64843 230.76409,177.08714 C 230.76409,177.6136 233.57187,180.77235 236.9061,184.10658 L 243.04811,190.24859 L 255.77085,177.52586 C 272.17879,161.03018 278.58402,153.74751 286.04218,142.5164 C 297.0978,125.84523 300.60752,108.38438 296.65908,89.256402 C 294.02679,76.709153 286.74412,64.33739 275.68851,53.983716 C 270.59941,49.245594 257.70119,42.313897 248.83915,39.418378 C 243.57457,37.751261 225.675,36.961574 216.98844,38.01449 z " />
  <path
     style="fill:#000000;stroke:none"
     id="path1420"
     d="M 214.61938,229.031 L 209.44254,234.82204 L 211.54837,236.48916 C 213.91743,238.4195 223.56916,246.93057 230.32538,253.07258 C 242.43391,264.1282 251.64692,272.37604 257.35022,277.20191 C 266.47549,284.92329 277.70659,296.94408 279.90017,301.33123 C 288.84996,318.70435 287.62155,336.25295 276.12722,355.11769 C 272.0033,361.96165 265.77355,369.06883 261.21091,372.13983 C 248.83915,380.65091 240.94228,383.19545 226.81565,383.19545 C 212.07483,383.19545 204.61668,380.56316 194.8772,371.8766 C 183.0319,361.34744 174.2576,347.04534 178.11829,344.67627 C 179.17121,343.97433 183.38287,346.16791 185.57645,348.62471 C 187.94551,351.16926 198.12369,357.13578 204.79216,359.76807 C 219.70847,365.64685 230.41312,365.7346 241.29325,360.29453 C 256.56053,352.4854 264.98386,339.4117 264.98386,323.17924 C 264.98386,316.1598 264.72063,315.01914 261.91285,309.40359 C 258.05216,301.68221 252.87533,296.85634 244.18877,292.64468 C 238.1345,289.8369 236.73061,289.48593 229.9744,289.48593 C 218.91879,289.39819 214.70712,291.85499 208.65285,302.03318 C 206.63477,305.45515 206.19605,307.03453 206.19605,312.56234 C 206.19605,318.09015 206.54702,319.66952 209.00383,324.23216 C 214.97035,335.37552 226.20145,339.4117 233.57187,333.0942 C 237.95902,329.23351 235.15124,320.72244 228.48277,317.73917 C 223.56916,315.63334 221.98979,312.73782 224.09562,309.57907 C 225.32402,307.73647 226.20145,307.3855 229.88666,307.3855 C 235.50221,307.3855 237.60804,308.26293 241.64422,312.29911 C 250.50627,321.16115 250.41852,331.69031 241.38099,340.11364 C 238.04676,343.27239 236.2919,344.23756 232.86992,344.76402 C 222.60399,346.25565 207.68768,341.07881 199.00112,333.00646 C 193.82429,328.18059 191.71846,324.40764 189.43714,315.45786 C 187.41905,307.56099 187.68228,301.85769 190.5778,293.78533 C 193.6488,285.27426 197.86047,279.57097 211.1974,266.14629 L 223.74465,253.42355 L 221.8143,251.84418 C 220.67364,250.96675 218.04136,248.59769 215.93552,246.5796 L 212.07483,242.8944 L 195.40366,260.00428 C 186.27839,269.39278 177.15312,279.22 175.13503,281.85229 C 173.20468,284.48458 170.83562,287.46784 170.04593,288.52076 C 163.81618,296.50537 158.63934,314.58043 158.5516,328.44382 C 158.46386,351.08151 169.95819,374.42115 186.62936,385.74 C 204.96765,398.11176 223.39368,402.0602 241.73197,397.32207 C 268.05487,390.47812 284.72604,376.79021 294.46551,353.7138 C 297.88749,345.64145 298.9404,342.13173 299.99332,334.49809 C 301.30946,324.67087 298.85266,304.05127 295.60617,297.73377 C 295.2552,297.03183 294.11454,294.66276 293.06162,292.55693 C 292.09645,290.4511 289.46416,286.50267 287.27058,283.78263 C 283.05892,278.6058 281.04083,276.67545 242.6094,241.66599 C 239.27516,238.50724 234.88801,234.47107 232.95766,232.62846 C 224.70982,224.90708 222.60399,223.15222 221.2001,223.23996 C 220.41042,223.23996 217.42715,225.87225 214.61938,229.031 z " />
  <path
     sodipodi:type="arc"
     style="opacity:1;color:#000000;fill:none;fill-opacity:0.25098039;fill-rule:nonzero;stroke:#000000;stroke-width:12;stroke-linecap:square;stroke-linejoin:miter;marker:none;marker-start:none;marker-mid:none;marker-end:none;stroke-miterlimit:4;stroke-dasharray:none;stroke-dashoffset:0;stroke-opacity:1;visibility:visible;display:inline;overflow:visible"
     id="path3949"
     sodipodi:cx="227.56674"
     sodipodi:cy="216.9612"
     sodipodi:rx="208.21895"
     sodipodi:ry="208.21895"
     d="M 435.78569 216.9612 A 208.21895 208.21895 0 1 1  19.347794,216.9612 A 208.21895 208.21895 0 1 1  435.78569 216.9612 z" />
</svg>
